<?xml version="1.0" encoding="UTF-8" standalone="no"?>
<!-- Created with Inkscape (http://www.inkscape.org/) -->

<svg
   xmlns:dc="http://purl.org/dc/elements/1.1/"
   xmlns:cc="http://creativecommons.org/ns#"
   xmlns:rdf="http://www.w3.org/1999/02/22-rdf-syntax-ns#"
   xmlns:svg="http://www.w3.org/2000/svg"
   xmlns="http://www.w3.org/2000/svg"
   xmlns:xlink="http://www.w3.org/1999/xlink"
   xmlns:sodipodi="http://sodipodi.sourceforge.net/DTD/sodipodi-0.dtd"
   xmlns:inkscape="http://www.inkscape.org/namespaces/inkscape"
   version="1.1"
   id="svg899"
   width="215"
   height="215"
   viewBox="0 0 215 215"
   sodipodi:docname="403.svg"
   inkscape:version="0.92.3 (2405546, 2018-03-11)">
  <metadata
     id="metadata905">
    <rdf:RDF>
      <cc:Work
         rdf:about="">
        <dc:format>image/svg+xml</dc:format>
        <dc:type
           rdf:resource="http://purl.org/dc/dcmitype/StillImage" />
        <dc:title></dc:title>
      </cc:Work>
    </rdf:RDF>
  </metadata>
  <defs
     id="defs903">
    <linearGradient
       inkscape:collect="always"
       id="linearGradient967">
      <stop
         style="stop-color:#000101;stop-opacity:1;"
         offset="0"
         id="stop963" />
      <stop
         style="stop-color:#000101;stop-opacity:1"
         offset="1"
         id="stop965" />
    </linearGradient>
    <linearGradient
       inkscape:collect="always"
       id="linearGradient959">
      <stop
         style="stop-color:#b5e4cf;stop-opacity:0.83050847"
         offset="0"
         id="stop955" />
      <stop
         style="stop-color:#328961;stop-opacity:1"
         offset="1"
         id="stop957" />
    </linearGradient>
    <radialGradient
       inkscape:collect="always"
       xlink:href="#linearGradient967"
       id="radialGradient969"
       cx="75.048776"
       cy="109.20358"
       fx="75.048776"
       fy="109.20358"
       r="94.3986"
       gradientTransform="matrix(1,0,0,0.80288489,0,21.525676)"
       gradientUnits="userSpaceOnUse" />
    <radialGradient
       inkscape:collect="always"
       xlink:href="#linearGradient959"
       id="radialGradient1045"
       gradientUnits="userSpaceOnUse"
       gradientTransform="matrix(-0.29407804,0.46978188,-0.41519243,-0.25990565,251.69425,72.838373)"
       cx="148.79713"
       cy="219.93303"
       fx="148.79713"
       fy="219.93303"
       r="217.23192" />
  </defs>
  <sodipodi:namedview
     pagecolor="#ffffff"
     bordercolor="#666666"
     borderopacity="1"
     objecttolerance="10"
     gridtolerance="10"
     guidetolerance="10"
     inkscape:pageopacity="0"
     inkscape:pageshadow="2"
     inkscape:window-width="1613"
     inkscape:window-height="995"
     id="namedview901"
     showgrid="false"
     inkscape:zoom="1.8186047"
     inkscape:cx="11.996882"
     inkscape:cy="52.286234"
     inkscape:window-x="67"
     inkscape:window-y="27"
     inkscape:window-maximized="1"
     inkscape:current-layer="svg899" />
  <g
     id="g936"
     transform="matrix(0.37796193,0,0,0.37796193,76.878262,18.948592)">
    <path
       style="fill:#328961;fill-opacity:1"
       d="m -69.76811,408.28218 c -0.36667,-0.36666 -0.66667,-50.49352 -0.66667,-111.39301 0,-100.04545 0.15258,-110.78489 1.58179,-111.33333 0.86998,-0.33385 11.89498,-0.60699 24.5,-0.60699 h 22.91821 V 157.0548 c 0,-15.34172 0.46783,-32.4529 1.03962,-38.02484 4.30451,-41.94642 31.73866,-74.09597 72.78495,-85.29529 11.29464,-3.08169 33.25053,-3.07704 45.55242,0.01 28.65527,7.18996 52.02086,26.57117 64.7302,53.6922 7.56549,16.14433 8.16719,20.39468 8.63572,61.00219 0.30008,26.00698 0.74005,36.19646 1.58617,36.73469 0.64401,0.40965 11.58528,0.75172 24.31393,0.76014 20.17174,0.0133 23.22094,0.21839 23.75,1.5971 0.33385,0.86998 0.60699,50.33784 0.60699,109.92857 0,97.16374 -0.1622,108.50898 -1.57143,109.91821 -1.414,1.414 -15.97402,1.57143 -145.33333,1.57143 -79.06905,0 -144.06191,-0.3 -144.42857,-0.66667 z m 154.10216,-76.60416 0.26883,-22.77083 5.08195,-3.12696 c 15.345,-9.44187 18.03847,-29.02559 5.81582,-42.28561 -16.88954,-18.32298 -47.9965,-6.37674 -47.91347,18.40057 0.0347,10.34124 4.88564,18.78023 13.97804,24.31684 1.925,1.17219 3.83061,2.605 4.23469,3.18403 0.40408,0.57904 0.74158,11.08281 0.75,23.34172 l 0.0153,22.28894 8.75,-0.28894 8.75,-0.28893 0.26883,-22.77083 z m 48.3437,-149.47917 c 1.74978,-4.52656 0.5565,-54.32057 -1.4798,-61.75 C 125.30445,98.94634 109.06087,79.76777 91.02808,73.02084 57.79033,60.585 27.42958,79.85436 19.45185,118.44885 c -1.55359,7.51592 -1.86252,13.63089 -1.87349,37.08333 -0.007,15.44584 0.28686,28.38334 0.65353,28.75 0.36666,0.36667 26.0278,0.66667 57.02475,0.66667 h 56.35808 z"
       id="path942"
       inkscape:connector-curvature="0"
       sodipodi:nodetypes="cscscssscsscccsssccccsscccscccccccssccscc" />
    <path
       style="fill:url(#radialGradient1045);fill-opacity:1;stroke-width:0.37796193"
       d="m 88.830078,14.894531 c -2.691342,0.009 -5.41196,0.208784 -7.292969,0.595703 -10.808781,2.223354 -19.846252,9.260837 -24.728515,19.257813 -3.381089,6.923159 -3.510897,7.762611 -3.671875,23.8125 -0.124444,12.406914 -0.21036,14.037879 -0.759766,14.457031 -0.453592,0.346055 -2.925779,0.472656 -9.240234,0.472656 h -8.621094 v 41.386716 41.38672 h 31.326172 c 24.601674,0 31.405636,-0.1016 31.708984,-0.47265 0.212434,-0.25985 4.929769,-18.84203 10.482419,-41.29297 5.55265,-22.450945 10.17237,-40.947609 10.26563,-41.103519 0.0933,-0.155909 1.44021,-0.283203 2.99219,-0.283203 2.6812,0 2.8392,-0.04754 3.18945,-0.96875 0.48604,-1.278369 0.47439,-19.258433 -0.0156,-24.425781 -0.63719,-6.719336 -2.55479,-12.164933 -6.16601,-17.503906 C 113.21578,22.697892 105.21907,17.414163 95.945312,15.441406 94.183423,15.06661 91.52142,14.885574 88.830078,14.894531 Z m -1.095703,13.304688 c 1.564117,0.01551 3.095289,0.168871 4.378906,0.470703 7.128132,1.676121 13.866499,7.693101 16.968749,15.15039 1.94509,4.675662 2.21548,7.060757 2.08789,18.419922 -0.0644,5.737432 -0.25851,10.573211 -0.43164,10.746094 -0.45393,0.453301 -43.014867,0.588303 -43.716796,0.138672 -0.472444,-0.30263 -0.588947,-1.889324 -0.693359,-9.525391 -0.181652,-13.284587 0.575148,-18.407878 3.566406,-24.136718 2.485708,-4.760605 6.535873,-8.624844 10.732422,-10.240235 1.800391,-0.693028 4.50056,-1.049288 7.107422,-1.023437 z m 1.339844,69.78125 c 5.814053,0.096 10.960891,4.619621 10.974611,11.037111 0.008,3.95954 -1.89545,7.34035 -5.462892,9.70117 l -1.486329,0.98242 v 8.23438 c 0,4.52871 -0.102333,8.50321 -0.228515,8.83203 -0.187439,0.48846 -0.902715,0.59765 -3.90625,0.59765 -2.021904,0 -3.789151,-0.11336 -3.927735,-0.25195 -0.138587,-0.13858 -0.251953,-4.11888 -0.251953,-8.8457 v -8.59375 l -1.605468,-0.94727 c -3.490853,-2.05821 -5.304451,-5.08683 -5.515626,-9.20898 -0.116121,-2.26671 0.01291,-3.04466 0.785157,-4.72461 1.239439,-2.69629 2.498116,-4.11014 4.753906,-5.337892 1.921367,-1.045739 3.933076,-1.506608 5.871094,-1.474609 z"
       transform="matrix(2.6457691,0,0,2.6457691,-159.75709,-6.4885604)"
       id="path1024"
       inkscape:connector-curvature="0" />
    <path
       style="fill:url(#radialGradient969);fill-opacity:1"
       d="m -19.07364,183.44757 c -0.31686,-0.8257 -0.36885,-16.6882 -0.11555,-35.25 0.44453,-32.57539 0.55269,-34.09609 3.11113,-43.74021 9.34177,-35.21407 34.90596,-60.35054 70.40597,-69.22797 10.62803,-2.65773 33.28944,-2.35082 44.23681,0.59912 31.75793,8.55768 56.89261,32.29457 66.30784,62.62034 4.24691,13.679 4.82546,20.6892 4.49786,54.5 l -0.3052,31.5 -17,0.27297 -17,0.27297 0.34798,-22.63347 c 0.19139,-12.44841 -0.13834,-26.7571 -0.73274,-31.79708 C 132.5598,112.58291 125.37875,97.57696 113.09062,85.44885 99.22276,71.76157 81.48057,65.46332 63.74163,67.93058 41.38065,71.0407 23.11072,90.82061 17.5417,117.94885 c -1.66571,8.11415 -1.95212,13.69403 -1.96334,38.25 l -0.01314,28.75 H -1.46616 c -14.22297,0 -17.12639,-0.24756 -17.60748,-1.50128 z"
       id="path938"
       inkscape:connector-curvature="0" />
  </g>
</svg>
