<?xml version="1.0" encoding="UTF-8" standalone="no"?>
<!-- Created with Inkscape (http://www.inkscape.org/) -->

<svg
   xmlns:dc="http://purl.org/dc/elements/1.1/"
   xmlns:cc="http://creativecommons.org/ns#"
   xmlns:rdf="http://www.w3.org/1999/02/22-rdf-syntax-ns#"
   xmlns:svg="http://www.w3.org/2000/svg"
   xmlns="http://www.w3.org/2000/svg"
   xmlns:xlink="http://www.w3.org/1999/xlink"
   xmlns:sodipodi="http://sodipodi.sourceforge.net/DTD/sodipodi-0.dtd"
   xmlns:inkscape="http://www.inkscape.org/namespaces/inkscape"
   version="1.1"
   id="svg899"
   width="215"
   height="215"
   viewBox="0 0 215 215"
   sodipodi:docname="403key.svg"
   inkscape:version="0.92.3 (2405546, 2018-03-11)">
  <metadata
     id="metadata905">
    <rdf:RDF>
      <cc:Work
         rdf:about="">
        <dc:format>image/svg+xml</dc:format>
        <dc:type
           rdf:resource="http://purl.org/dc/dcmitype/StillImage" />
        <dc:title />
      </cc:Work>
    </rdf:RDF>
  </metadata>
  <defs
     id="defs903">
    <linearGradient
       id="linearGradient1654"
       inkscape:collect="always">
      <stop
         id="stop1650"
         offset="0"
         style="stop-color:#422285;stop-opacity:1" />
      <stop
         id="stop1652"
         offset="1"
         style="stop-color:#4528aa;stop-opacity:0.68341708" />
    </linearGradient>
    <linearGradient
       inkscape:collect="always"
       id="linearGradient959">
      <stop
         style="stop-color:#b5e4cf;stop-opacity:0.83050847"
         offset="0"
         id="stop955" />
      <stop
         style="stop-color:#328961;stop-opacity:1"
         offset="1"
         id="stop957" />
    </linearGradient>
    <radialGradient
       inkscape:collect="always"
       xlink:href="#linearGradient959"
       id="radialGradient1079"
       gradientUnits="userSpaceOnUse"
       gradientTransform="matrix(-0.29407804,0.46978188,-0.41519243,-0.25990565,251.69425,72.838374)"
       cx="148.79713"
       cy="219.93303"
       fx="148.79713"
       fy="219.93303"
       r="217.23192" />
    <filter
       inkscape:collect="always"
       style="color-interpolation-filters:sRGB"
       id="filter1618"
       x="-0.016649239"
       width="1.0332985"
       y="-0.042972814"
       height="1.0859456">
      <feGaussianBlur
         inkscape:collect="always"
         stdDeviation="0.45097956"
         id="feGaussianBlur1620" />
    </filter>
    <linearGradient
       inkscape:collect="always"
       xlink:href="#linearGradient1654"
       id="linearGradient1662"
       x1="375.54129"
       y1="266.73141"
       x2="411.83942"
       y2="288.25986"
       gradientUnits="userSpaceOnUse" />
  </defs>
  <sodipodi:namedview
     pagecolor="#ffffff"
     bordercolor="#666666"
     borderopacity="1"
     objecttolerance="10"
     gridtolerance="10"
     guidetolerance="10"
     inkscape:pageopacity="0"
     inkscape:pageshadow="2"
     inkscape:window-width="1613"
     inkscape:window-height="995"
     id="namedview901"
     showgrid="false"
     inkscape:zoom="10.287582"
     inkscape:cx="68.768934"
     inkscape:cy="153.15899"
     inkscape:window-x="67"
     inkscape:window-y="27"
     inkscape:window-maximized="1"
     inkscape:current-layer="svg899" />
  <g
     transform="matrix(0.37796193,0,0,0.37796193,-14.956302,-20.236777)"
     id="g1075"
     inkscape:export-xdpi="96"
     inkscape:export-ydpi="96">
    <path
       inkscape:connector-curvature="0"
       id="path1067"
       d="m 272.56522,389.0716 c -9.25812,-3.04074 -17.10584,-9.63099 -21.07709,-17.69984 -2.07416,-4.21431 -2.42291,-6.3623 -2.42291,-14.92291 0,-9.21559 0.23268,-10.42009 2.9663,-15.35541 6.27923,-11.33663 16.61716,-17.14459 30.51665,-17.14459 7.64199,0 7.95205,-0.0925 9.22033,-2.75 0.96154,-2.01478 2.45519,-3.02616 5.58682,-3.78295 3.43524,-0.83016 4.8562,-1.90993 7.23787,-5.5 3.50502,-5.28337 3.56229,-5.88972 1.02595,-10.86136 -1.75628,-3.44259 -1.79952,-4.02389 -0.4433,-5.96016 0.82653,-1.18004 2.57163,-2.14553 3.87799,-2.14553 3.47902,0 6.88585,-5.16733 6.1302,-9.29801 -0.81659,-4.46382 0.33107,-5.71757 5.9724,-6.52453 4.68609,-0.67031 5.10678,-1.00271 9.73161,-7.68903 4.41174,-6.37825 4.78461,-7.36217 4.27045,-11.26887 -0.51082,-3.88129 -0.33163,-4.36854 1.92169,-5.22525 2.06077,-0.7835 2.48504,-1.61105 2.48504,-4.84711 0,-2.14627 0.5625,-4.35057 1.25,-4.89845 0.6875,-0.54787 4.87657,-1.3014 9.30903,-1.67451 7.94503,-0.66877 8.1288,-0.63166 12.99032,2.62369 2.7122,1.81614 5.07432,4.05418 5.24914,4.97341 0.17482,0.91924 -12.81362,21.36081 -28.86322,45.42571 l -29.18107,43.75436 2.24875,6.36986 c 4.36266,12.35777 1.55585,26.34004 -7.07225,35.2307 -6.2105,6.3995 -13.00717,9.33584 -22.4307,9.69066 -4.4,0.16567 -9.125,-0.0683 -10.5,-0.51988 z m 6.68555,-15.29706 c 4.57036,-4.29364 1.32594,-13.82569 -4.70584,-13.82569 -7.41971,0 -11.38491,7.67257 -6.90713,13.36514 2.68353,3.41155 8.23732,3.6318 11.61297,0.46055 z"
       style="fill:#328961;fill-opacity:1"
       sodipodi:nodetypes="csssscssscsscsccsccccscsssccssc" />
    <path
       id="path1071"
       transform="matrix(2.6457691,0,0,2.6457691,-159.75709,-6.4885604)"
       d="m 194.08008,94.474609 c -0.42263,0.01452 -0.93098,0.05616 -1.57617,0.115235 -2.74103,0.250989 -2.83023,0.289338 -2.72461,1.201172 0.17182,1.483409 -0.2334,2.573315 -1.05469,2.833984 -0.59672,0.189389 -0.75586,0.572822 -0.75586,1.82617 0,1.19164 -0.34228,2.10001 -1.375,3.65821 -2.17647,3.2839 -2.71371,3.74027 -4.73047,4.00781 l -1.82422,0.24219 0.23242,1.45898 c 0.31335,1.95955 -1.20698,4.11328 -2.90429,4.11328 -1.2693,0 -1.44114,0.70665 -0.54883,2.26758 0.8275,1.44756 0.67712,2.53617 -0.61914,4.46875 -1.50576,2.24491 -2.10077,2.71289 -3.44141,2.71289 -0.85238,0 -1.1609,0.2311 -1.46093,1.0918 l -0.38086,1.09179 -3.85157,0.15625 c -3.0217,0.12317 -4.19534,0.33733 -5.44726,0.99024 -4.18306,2.18159 -6.54138,5.95856 -6.51367,10.43164 0.0186,3.01031 0.56226,4.86272 2.0664,7.0332 1.3353,1.92683 3.30814,3.40748 5.66211,4.25 2.46366,0.88178 6.49376,0.70584 8.9668,-0.39062 2.44938,-1.08598 4.98664,-3.79583 5.9414,-6.34766 0.93396,-2.49622 1.00407,-6.11399 0.16016,-8.29102 -1.2404,-3.19987 -1.75077,-2.1841 10.04688,-19.96679 6.04466,-9.11118 10.89411,-16.721212 10.77734,-16.910159 -0.11678,-0.188943 -0.92609,-0.757655 -1.79883,-1.265625 -1.08349,-0.63063 -1.57782,-0.822847 -2.8457,-0.779297 z m -30.10547,43.359371 c 0.26967,0.0172 0.5497,0.0611 0.83984,0.13477 0.17725,0.045 0.34543,0.10023 0.50782,0.16602 0.32231,0.13058 0.61662,0.29974 0.87695,0.5 1.43542,1.10422 1.89257,3.14231 0.98828,4.74023 -0.16442,0.29053 -0.37406,0.56719 -0.63086,0.82031 -0.16846,0.16605 -0.33497,0.31537 -0.50195,0.44922 -0.16698,0.13387 -0.33529,0.25156 -0.50196,0.35352 -0.49955,0.30517 -1.00141,0.46889 -1.51953,0.49218 -0.34572,0.0156 -0.69864,-0.0295 -1.06445,-0.13671 -0.18292,-0.0537 -0.36889,-0.12309 -0.55859,-0.20704 -0.26862,-0.11886 -0.50994,-0.25661 -0.73047,-0.40625 -0.0554,-0.0376 -0.098,-0.0818 -0.15039,-0.12109 -0.15329,-0.11489 -0.30316,-0.23123 -0.43164,-0.35937 -0.0698,-0.0696 -0.12484,-0.1457 -0.1875,-0.21875 -0.0918,-0.10699 -0.18498,-0.21279 -0.26172,-0.32618 -0.0579,-0.0855 -0.10283,-0.1751 -0.15235,-0.26367 -0.0627,-0.1122 -0.1262,-0.22356 -0.17578,-0.33984 -0.0384,-0.0899 -0.065,-0.18158 -0.0957,-0.27344 -0.0399,-0.1194 -0.0802,-0.23757 -0.10742,-0.35937 -0.021,-0.094 -0.0333,-0.18828 -0.0469,-0.28321 -0.0177,-0.12372 -0.0336,-0.24669 -0.0391,-0.37109 -0.004,-0.0941 -0.003,-0.18731 0,-0.28125 0.004,-0.12319 0.0104,-0.24505 0.0254,-0.36719 0.0121,-0.0988 0.0294,-0.19547 0.0488,-0.29297 0.0229,-0.11488 0.0493,-0.22748 0.082,-0.33984 0.0283,-0.0974 0.0601,-0.19223 0.0957,-0.28711 0.0411,-0.10946 0.0882,-0.21493 0.13868,-0.32031 0.0428,-0.0895 0.0854,-0.17769 0.13476,-0.26367 0.059,-0.10282 0.12522,-0.19988 0.19336,-0.29688 0.0569,-0.0811 0.11269,-0.16176 0.17578,-0.23828 0.0772,-0.0935 0.16189,-0.17986 0.24805,-0.26563 0.0678,-0.0676 0.13383,-0.13504 0.20703,-0.19726 0.0951,-0.0808 0.19888,-0.15172 0.30273,-0.22266 0.0782,-0.0534 0.15333,-0.10895 0.23633,-0.15625 0.10963,-0.0625 0.22797,-0.1111 0.3457,-0.16211 0.0917,-0.0397 0.17895,-0.085 0.2754,-0.11719 0.12747,-0.0426 0.26495,-0.0672 0.40039,-0.0957 0.0943,-0.0198 0.1832,-0.048 0.28125,-0.0605 0.24063,-0.0309 0.49021,-0.0421 0.75195,-0.0254 z"
       style="fill:url(#radialGradient1079);fill-opacity:1;stroke-width:0.37796193"
       inkscape:connector-curvature="0" />
  </g>
  <path
     sodipodi:nodetypes="csssscssscsscsccsccccscsssccssc"
     style="fill:#2f2f2f;fill-opacity:1;stroke-width:0.37796193;filter:url(#filter1618)"
     d="m 25.146149,56.30217 c -0.862088,3.580806 -0.302711,7.413492 1.502357,10.293675 0.942776,1.504302 1.564073,2.043264 4.316388,3.744373 2.962896,1.831267 3.396391,1.995807 5.526348,2.097637 4.892599,0.23391 8.814198,-1.935708 11.576215,-6.404522 1.518567,-2.456969 1.60992,-2.538276 2.716355,-2.417958 0.838841,0.09122 1.460818,-0.188027 2.32643,-1.04449 0.949533,-0.939497 1.579053,-1.181784 3.206563,-1.234117 2.395147,-0.07702 2.601474,0.02506 3.695897,1.828447 0.757828,1.248749 0.936129,1.378164 1.828156,1.32689 0.543637,-0.03125 1.200826,-0.400457 1.460417,-0.820464 0.691329,-1.118537 3.029656,-1.187045 4.207549,-0.123275 1.272892,1.149563 1.90404,1.029717 3.284493,-0.623668 1.146701,-1.373421 1.337167,-1.442625 4.405897,-1.600887 2.927338,-0.150971 3.317772,-0.07533 4.471641,0.866288 1.146364,0.935498 1.338626,0.97471 2.061832,0.420487 0.661405,-0.506864 1.011778,-0.478826 2.052201,0.164223 0.690046,0.426493 1.510525,0.683669 1.823289,0.571502 0.31276,-0.112168 1.387452,-1.309256 2.3882,-2.66019 1.793801,-2.421506 1.818388,-2.487964 1.737813,-4.69787 -0.04496,-1.232888 -0.29512,-2.437061 -0.555922,-2.67593 -0.260805,-0.238872 -9.413936,-0.124987 -20.340295,0.253085 L 48.971871,54.252803 47.37076,52.264031 c -3.106216,-3.858291 -8.159395,-5.734343 -12.732344,-4.727024 -3.291609,0.725065 -5.586259,2.326766 -7.572921,5.28601 -0.927604,1.381719 -1.791302,2.947343 -1.919346,3.479153 z m 6.246655,0.890268 c 2.288637,-0.616209 4.708568,2.32105 3.509971,4.260322 -1.474397,2.385505 -4.729137,2.135709 -5.669555,-0.435129 -0.563591,-1.5407 0.46921,-3.370062 2.159584,-3.825193 z"
     id="path1549"
     inkscape:connector-curvature="0"
     inkscape:export-xdpi="96"
     inkscape:export-ydpi="96" />
  <g
     inkscape:export-ydpi="96"
     inkscape:export-xdpi="96"
     id="g1553"
     transform="matrix(0.19871356,-0.32150916,-0.32150916,-0.19871356,77.805367,244.00204)"
     style="fill:url(#linearGradient1662);fill-opacity:1">
    <path
       inkscape:connector-curvature="0"
       style="fill:url(#linearGradient1662);fill-opacity:1;stroke:#000000;stroke-width:1;stroke-opacity:1;paint-order:fill markers stroke"
       d="m 429.9082,233.71043 c -1.11818,0.0384 -2.46315,0.14859 -4.17018,0.30489 -7.25213,0.66406 -7.48813,0.76552 -7.20869,3.17802 0.4546,3.92476 -0.61752,6.8084 -2.79046,7.49807 -1.57879,0.50108 -1.99983,1.51555 -1.99983,4.83162 0,3.15281 -0.9056,5.55615 -3.63794,9.67878 -5.75843,8.68844 -7.17985,9.89589 -12.51573,10.60374 l -4.82646,0.64078 0.61493,3.86013 c 0.82905,5.18451 -3.19339,10.88278 -7.68408,10.88278 -3.35828,0 -3.81293,1.86964 -1.45208,5.9995 2.18937,3.82991 1.7915,6.71012 -1.6381,11.82328 -3.9839,5.93951 -5.55815,7.17768 -9.10518,7.17768 -2.2552,0 -3.07147,0.61144 -3.86528,2.88865 l -1.00767,2.88862 -10.19036,0.41341 c -7.99472,0.32587 -11.09991,0.89249 -14.4122,2.61994 -11.06741,5.77199 -17.30698,15.76498 -17.23366,27.59971 0.0492,7.96459 1.48761,12.86564 5.46721,18.60823 3.5329,5.09794 8.75258,9.0154 14.98064,11.24451 6.51828,2.33299 17.18099,1.86749 23.72408,-1.03349 6.4805,-2.87325 13.1935,-10.04289 15.71957,-16.79444 2.47105,-6.60442 2.65654,-16.1762 0.42375,-21.93612 -3.28181,-8.46612 -4.63213,-5.77863 26.58173,-52.82752 15.99277,-24.10608 28.8233,-44.24046 28.51435,-44.74038 -0.30897,-0.49989 -2.45022,-2.00458 -4.75929,-3.34855 -2.86666,-1.6685 -4.17455,-2.17706 -7.52907,-2.06184 z m -79.65212,114.71889 c 0.71349,0.0455 1.45438,0.16165 2.22203,0.35657 0.46896,0.11906 0.91392,0.26518 1.34357,0.43925 0.85276,0.34548 1.63143,0.79304 2.32021,1.32288 3.79779,2.92151 5.0073,8.31383 2.61476,12.54156 -0.43502,0.76867 -0.98968,1.50065 -1.66911,2.17035 -0.44571,0.43933 -0.88626,0.83439 -1.32805,1.18853 -0.44179,0.35419 -0.8871,0.66557 -1.32807,0.93533 -1.32169,0.80741 -2.6495,1.24058 -4.02032,1.3022 -0.9147,0.0413 -1.84844,-0.0781 -2.81629,-0.36171 -0.48396,-0.14207 -0.976,-0.32566 -1.4779,-0.54778 -0.71071,-0.31447 -1.34918,-0.67893 -1.93266,-1.07484 -0.14657,-0.0995 -0.25928,-0.21642 -0.39789,-0.32038 -0.40557,-0.30397 -0.80209,-0.61178 -1.14202,-0.95081 -0.18468,-0.18414 -0.3303,-0.38548 -0.49608,-0.57876 -0.24289,-0.28307 -0.48942,-0.56299 -0.69246,-0.86299 -0.15319,-0.22622 -0.27206,-0.46328 -0.40308,-0.69761 -0.16589,-0.29686 -0.33389,-0.59149 -0.46507,-0.89914 -0.1016,-0.23786 -0.17198,-0.48042 -0.2532,-0.72346 -0.10557,-0.31591 -0.21219,-0.62856 -0.28421,-0.95081 -0.0556,-0.2487 -0.0881,-0.49815 -0.12409,-0.74931 -0.0468,-0.32733 -0.0889,-0.65269 -0.10345,-0.98182 -0.0106,-0.24897 -0.008,-0.49558 0,-0.74412 0.0106,-0.32593 0.0275,-0.64835 0.0672,-0.9715 0.032,-0.2614 0.0778,-0.51717 0.12911,-0.77513 0.0606,-0.30395 0.13044,-0.60186 0.21695,-0.89914 0.0749,-0.2577 0.15901,-0.5086 0.2532,-0.75963 0.10874,-0.2896 0.23336,-0.56865 0.36692,-0.84746 0.11324,-0.2368 0.22595,-0.47013 0.35654,-0.69761 0.1561,-0.27204 0.33131,-0.52884 0.51159,-0.78548 0.15054,-0.21457 0.29815,-0.42798 0.46507,-0.63043 0.20425,-0.24738 0.42832,-0.47587 0.65628,-0.7028 0.17939,-0.17885 0.35409,-0.35728 0.54776,-0.5219 0.25161,-0.21378 0.52619,-0.40142 0.80095,-0.58911 0.2069,-0.14128 0.40568,-0.28826 0.62528,-0.4134 0.29005,-0.16536 0.60315,-0.29395 0.91464,-0.42891 0.24262,-0.10503 0.47346,-0.22489 0.72864,-0.31006 0.33726,-0.1127 0.701,-0.17779 1.05934,-0.2532 0.2495,-0.0524 0.48471,-0.12699 0.74413,-0.16006 0.63665,-0.0818 1.29698,-0.11139 1.98948,-0.0672 z"
       id="path1551" />
  </g>
</svg>
