<?xml version="1.0" encoding="UTF-8" standalone="no"?>
<!-- Created with Inkscape (http://www.inkscape.org/) -->

<svg
   xmlns:dc="http://purl.org/dc/elements/1.1/"
   xmlns:cc="http://creativecommons.org/ns#"
   xmlns:rdf="http://www.w3.org/1999/02/22-rdf-syntax-ns#"
   xmlns:svg="http://www.w3.org/2000/svg"
   xmlns="http://www.w3.org/2000/svg"
   xmlns:sodipodi="http://sodipodi.sourceforge.net/DTD/sodipodi-0.dtd"
   xmlns:inkscape="http://www.inkscape.org/namespaces/inkscape"
   version="1.1"
   id="svg1583"
   width="360"
   height="720"
   viewBox="0 0 360 720"
   sodipodi:docname="paddle.svg"
   inkscape:version="0.92.3 (2405546, 2018-03-11)">
  <metadata
     id="metadata1589">
    <rdf:RDF>
      <cc:Work
         rdf:about="">
        <dc:format>image/svg+xml</dc:format>
        <dc:type
           rdf:resource="http://purl.org/dc/dcmitype/StillImage" />
        <dc:title></dc:title>
      </cc:Work>
    </rdf:RDF>
  </metadata>
  <defs
     id="defs1587" />
  <sodipodi:namedview
     pagecolor="#ffffff"
     bordercolor="#666666"
     borderopacity="1"
     objecttolerance="10"
     gridtolerance="10"
     guidetolerance="10"
     inkscape:pageopacity="0"
     inkscape:pageshadow="2"
     inkscape:window-width="1613"
     inkscape:window-height="995"
     id="namedview1585"
     showgrid="false"
     inkscape:zoom="1.3111111"
     inkscape:cx="354.60709"
     inkscape:cy="483.4573"
     inkscape:window-x="67"
     inkscape:window-y="27"
     inkscape:window-maximized="1"
     inkscape:current-layer="svg1583" />
  <g
     id="g2136">
    <path
       style="fill:#d2cecf"
       d="m 45.685225,718.03189 c -4.916141,-0.95121 -8.638151,-3.75404 -11.355012,-8.55079 -4.15397,-7.33404 -4.130029,-28.83143 0.04876,-43.77989 C 35.270536,662.51188 36,658.84649 36,657.55592 c 0,-1.29058 1.30756,-5.43112 2.905688,-9.20121 1.598128,-3.77009 3.893959,-10.12379 5.101845,-14.11934 1.373806,-4.54439 3.000534,-7.822 4.344312,-8.75313 1.181485,-0.81867 3.318387,-4.29959 4.74867,-7.73537 2.025018,-4.86443 3.033041,-6.2018 4.554989,-6.04321 1.540458,0.16051 2.218749,-0.78443 3.202046,-4.46087 1.42639,-5.33311 2.766888,-7.32414 4.486779,-6.66415 0.703806,0.27007 2.702153,-2.57988 4.843694,-6.90786 3.143762,-6.35343 5.457659,-9.07473 16.809591,-19.76919 14.967986,-14.10109 16.834836,-17.03877 25.001816,-39.34284 2.62992,-7.18231 10.92823,-29.93375 18.4407,-50.55875 7.51247,-20.625 14.35219,-39.29776 15.19939,-41.49502 0.8472,-2.19726 6.9317,-19.07226 13.52111,-37.5 6.58941,-18.42774 15.06286,-41.82998 18.82988,-52.00498 3.76702,-10.175 10.46494,-28.45273 14.88426,-40.61717 4.41932,-12.16445 8.70675,-23.86445 9.52761,-26 0.82086,-2.13556 6.06923,-16.48283 11.66303,-31.88283 5.59381,-15.4 13.28636,-36.51997 17.09456,-46.93326 14.58279,-39.87569 14.98504,-41.68153 12.48909,-56.06674 -3.26965,-18.8443 -3.02133,-29.26664 1.28659,-54 3.36827,-19.33849 16.23891,-57.178457 25.47597,-74.899935 3.88376,-7.45107 11.81913,-18.1180082 14.57598,-19.5934279 3.01692,-1.614606 8.77758,-1.167081 13.05292,1.0140342 5.67643,2.8958973 17.88059,15.7012867 23.23857,24.3834077 7.01063,11.360082 8.18822,15.375482 8.093,27.595921 -0.07,8.977508 -0.60117,12.255937 -3.66363,22.609975 -6.73929,22.785275 -17.56178,44.897705 -30.32388,61.957585 -6.37199,8.51782 -11.92969,13.79224 -23.99907,22.77584 -8.76248,6.52217 -9.27257,7.11965 -13.20774,15.47039 -4.84648,10.28459 -12.56266,31.07247 -68.18183,183.68621 -3.20711,8.8 -10.85885,29.5 -17.00387,46 C 131.97793,518.6271 118,558.87071 118,566.82673 c 0,1.54243 1.63365,7.72491 3.63033,13.73884 3.35485,10.10473 3.63205,11.84499 3.6531,22.93443 0.0169,8.89595 -0.50805,14.06937 -2.02934,20 -12.42206,48.42632 -23.364831,77.02633 -32.572376,85.13113 -5.801537,5.10672 -12.257552,8.24058 -19.379059,9.40693 -6.63405,1.08652 -19.986719,1.0833 -25.61743,-0.006 z"
       id="path2160"
       inkscape:connector-curvature="0" />
    <path
       style="fill:#dca2a1"
       d="m 41.966006,715.75 c -6.456904,-3.25903 -8.882028,-8.11663 -8.860862,-17.74857 0.0091,-4.13643 -0.2705,-8.26877 -0.621312,-9.18297 -0.350811,-0.9142 -0.115877,-2.63747 0.522077,-3.8295 0.637954,-1.19203 1.182698,-4.70265 1.210542,-7.80137 0.03683,-4.09855 0.670659,-6.59523 2.325649,-9.16082 2.996686,-4.6455 4.119278,-9.99998 2.328572,-11.1067 -1.122833,-0.69395 -1.119324,-1.37049 0.0214,-4.12508 0.750479,-1.81224 2.775704,-7.20142 4.5005,-11.97594 3.611811,-9.99809 5.150829,-12.22404 4.11361,-5.9497 -0.573583,3.46972 -0.442682,4.26757 0.635759,3.875 0.746935,-0.27189 1.241034,-1.01419 1.097998,-1.64955 C 48.948219,635.79902 51.726631,630 52.63918,630 c 0.3233,0 0.386773,1.36981 0.14105,3.04403 -0.512102,3.48917 0.457509,4.56838 2.38915,2.65921 0.731841,-0.72333 2.052445,-1.58814 2.934676,-1.92181 1.038838,-0.39289 2.511497,-4.07304 4.179319,-10.44404 8.706528,-33.25856 8.574774,-33.00639 25.775074,-49.33366 10.827183,-10.27764 13.774301,-13.70728 16.599381,-19.31714 4.7398,-9.41199 13.90513,-34.08551 59.68929,-160.68659 9.05007,-25.025 25.98879,-71.6 37.64159,-103.5 11.65281,-31.9 25.64462,-70.22586 31.0929,-85.16859 5.44829,-14.94272 10.66267,-30.32146 11.58751,-34.17497 1.61821,-6.74253 1.59957,-7.58351 -0.4949,-22.33141 -2.57717,-18.14671 -2.65625,-21.76408 -0.70667,-32.32503 0.81225,-4.4 1.98259,-11.375 2.60074,-15.5 0.61815,-4.125 2.04197,-10.65 3.16403,-14.5 1.12206,-3.85 2.2202,-8.514982 2.4403,-10.366627 0.22011,-1.851644 1.46527,-5.901644 2.76704,-9 C 255.74143,64.035018 257.5894,58.8 258.54625,55.5 c 0.95685,-3.3 2.99248,-8.475 4.52361,-11.5 1.53114,-3.025 3.08712,-6.723716 3.45773,-8.219369 0.98125,-3.959918 7.53014,-16.586104 11.22003,-21.632102 1.75011,-2.393309 3.45474,-5.2107447 3.78807,-6.2609676 C 282.3328,5.376078 287.05761,3 291.25456,3 c 10.08266,0 31.43771,24.019253 36.40326,40.944829 5.94754,20.272841 -11.90162,69.938781 -35.73088,99.422411 -4.61329,5.70797 -10.12908,10.82485 -18.5,17.16205 -11.33334,8.57991 -12.11011,9.40111 -15.60723,16.5 C 253.64734,185.49887 242.04156,216.42865 208.48796,308.5 195.66001,343.7 178.5567,390.275 170.48062,412 129.67393,521.77167 117,558.38515 117,566.49922 c 0,1.28573 1.6126,7.43688 3.58357,13.66923 6.37292,20.15173 5.92193,29.01128 -3.12201,61.33155 -8.90043,31.80743 -17.645576,54.8082 -24.012427,63.15558 C 86.498491,713.76834 75.296125,718 58.122795,718 47.977971,718 45.831573,717.70109 41.966006,715.75 Z M 50,673.10887 c 0,-2.11386 -1.619705,-0.19421 -2.439384,2.89113 -0.638297,2.4026 -0.603715,2.42437 0.887605,0.55887 C 49.301699,675.49125 50,673.93875 50,673.10887 Z M 51.969374,667.5 c 0,-0.55 -0.436218,-0.325 -0.969374,0.5 -0.533156,0.825 -0.969374,1.95 -0.969374,2.5 0,0.55 0.436218,0.325 0.969374,-0.5 0.533156,-0.825 0.969374,-1.95 0.969374,-2.5 z M 89.8,584.8 c 1.749381,-1.74938 1.471348,-2.8 -0.740983,-2.8 -2.197642,0 -3.482322,1.50606 -2.559017,3 0.818297,1.32403 1.837753,1.26225 3.3,-0.2 z M 271.02489,102.43453 c 1.02961,-2.708066 -0.36837,-6.958314 -1.96428,-5.971987 -1.52698,0.943725 -2.17973,5.688997 -0.98122,7.133107 1.57658,1.89968 1.81797,1.80452 2.9455,-1.16112 z"
       id="path2158"
       inkscape:connector-curvature="0" />
    <path
       style="fill:#a59c9e"
       d="m 47.310045,717.01933 c -9.367504,-1.99992 -13.164825,-7.52676 -14.011201,-20.39273 -0.657489,-9.99464 -0.685952,-9.13287 0.493966,-14.95575 0.538204,-2.65603 0.75498,-5.6841 0.481724,-6.72903 -0.273256,-1.04494 0.460869,-3.52306 1.631389,-5.50694 1.17052,-1.98389 2.951522,-5.93082 3.957782,-8.77097 1.00626,-2.84015 2.207832,-6.06391 2.67016,-7.16391 0.748796,-1.78158 0.656336,-1.85012 -0.846634,-0.62756 C 40.235771,654.05311 40,654.02191 40,652.6492 c 0,-0.87764 0.856856,-3.52024 1.904125,-5.87245 1.047268,-2.35221 2.366812,-5.40175 2.932319,-6.77675 1.026847,-2.49672 1.028284,-2.49696 1.095876,-0.18426 0.03722,1.27366 -0.398153,3.18616 -0.967504,4.25 C 44.270427,645.36322 44.264155,646 44.945764,646 c 0.558873,0 1.293856,-1.10654 1.633297,-2.45898 0.339441,-1.35244 1.248014,-2.98254 2.019052,-3.62245 C 49.369151,639.27867 50,637.68521 50,636.37756 c 0,-2.6725 1.474335,-3.1898 2.378175,-0.83444 0.457572,1.19242 1.033603,1.30687 2.534546,0.50359 1.068317,-0.57175 2.604915,-0.7853 3.414662,-0.47458 1.584503,0.60804 2.510703,-1.65278 4.740809,-11.57213 0.680092,-3.025 2.292968,-8.61632 3.584169,-12.42515 1.291202,-3.80884 2.347994,-7.85884 2.348428,-9 0.0014,-3.64353 5.607645,-14.07947 9.573658,-17.82118 C 82.876616,580.69482 84,580.76454 84,585.0904 c 0,4.66813 2.713937,4.88944 6.694477,0.54592 C 94.469658,581.51688 94.282755,580 90,580 c -5.295899,0 -4.483657,-2.06238 4.177746,-10.60776 5.35968,-5.28789 9.239044,-10.09369 10.589654,-13.11859 3.53082,-7.90778 18.55455,-48.82772 59.57868,-162.27365 17.69812,-48.94141 57.49988,-158.02005 71.33611,-195.5 12.79425,-34.65743 11.92248,-30.17908 9.44084,-48.49794 C 243.95536,141.3826 243,131.66706 243,128.41198 c 0,-5.09667 2.10999,-14.77532 4.50689,-20.67332 0.55467,-1.36487 0.34165,-1.61777 -0.94635,-1.12352 -1.39647,0.53588 -1.55199,0.17807 -0.973,-2.23866 0.37902,-1.58206 1.14606,-3.76368 1.70455,-4.848031 0.55848,-1.084354 0.94351,-3.872701 0.85562,-6.196328 -0.0879,-2.323628 0.78687,-6.75498 1.94391,-9.84745 1.15704,-3.09247 1.86068,-5.865708 1.56363,-6.162752 -0.29704,-0.297043 0.38701,-2.853492 1.52011,-5.680998 C 254.30846,68.813414 256.70921,62.225 258.51037,57 260.31153,51.775 263.18353,44.262166 264.8926,40.304813 266.60167,36.34746 268,32.557893 268,31.883554 c 0,-0.67434 0.59057,-1.936506 1.31237,-2.804813 C 270.03418,28.210433 271.47343,25.475 272.5107,23 c 1.03727,-2.475 2.58421,-5.245901 3.43763,-6.157557 0.85342,-0.911657 2.45167,-2.871389 3.55167,-4.354961 5.05196,-6.813589 7.25659,-8.4875695 11.17308,-8.4837439 5.05512,0.00494 9.34374,2.7409243 17.8273,11.3731809 7.54428,7.67652 14.8405,18.83318 17.67025,27.019632 2.58923,7.490603 2.33957,18.2308 -0.69521,29.907158 C 319.58411,94.970658 309.62632,116.99792 296.68046,136 291.73701,143.25605 282.19447,152.72691 272,160.49508 c -5.225,3.98145 -10.21518,8.08632 -11.08929,9.12196 -2.7274,3.23138 -10.25324,23.16949 -52.42275,138.88296 C 195.66001,343.7 178.5567,390.275 170.48062,412 135.48928,506.12814 116,561.37998 116,566.45181 c 0,1.42184 1.6875,7.63935 3.75,13.81668 3.55418,10.645 3.74741,11.88426 3.70033,23.73151 -0.0541,13.61248 -0.81966,17.32434 -10.10619,49 -6.91525,23.5874 -14.698884,42.97947 -20.612101,51.35281 -2.51836,3.56609 -10.658192,8.78983 -17.232039,11.05865 -5.794975,2.00002 -22.018818,2.92537 -28.189955,1.60787 z m -1.23702,-31.64696 c 3.478393,-6.0796 7.941338,-18.29066 7.895765,-21.60359 -0.02626,-1.90928 -0.42411,-1.63496 -2.510778,1.73122 -1.363762,2.2 -2.926244,5.62875 -3.472181,7.61945 -0.545938,1.9907 -1.905488,4.77999 -3.021222,6.19841 -1.328148,1.68847 -1.826416,3.38456 -1.443038,4.91206 0.398562,1.588 -0.270124,3.60049 -2.093819,6.30159 -2.221766,3.29069 -2.310899,3.63823 -0.521875,2.03482 1.186633,-1.06352 3.511849,-4.3008 5.167148,-7.19396 z M 56.9155,652.33339 c 1.146475,-4.49164 2.070816,-9.21664 2.054091,-10.5 -0.0291,-2.23276 -0.07962,-2.24854 -1.171452,-0.36581 -1.893828,3.26565 -4.69504,15.21067 -4.100341,17.4848 0.305915,1.16982 0.686032,1.9966 0.844706,1.83728 0.158673,-0.15931 1.226521,-3.96464 2.372996,-8.45627 z M 272.36971,106.75 c 1.0685,-3.98708 0.60766,-10.195822 -0.90526,-12.196253 -1.89038,-2.49953 -2.99651,-1.370716 -4.6177,4.712427 -1.21444,4.556906 -1.16213,4.872576 1.19152,7.189556 3.09285,3.04467 3.5854,3.07814 4.33144,0.29427 z M 256.3638,90.030467 c -0.67276,-0.672756 -2.33701,2.183352 -2.31305,3.969533 0.0117,0.869623 0.60122,0.450005 1.40286,-0.998493 0.7605,-1.374172 1.17009,-2.711139 0.91019,-2.97104 z"
       id="path2156"
       inkscape:connector-curvature="0" />
    <path
       style="fill:#d2837c"
       d="m 47.310045,717.01933 c -5.654187,-1.20714 -9.065624,-3.6117 -11.23934,-7.92208 -3.584604,-7.10811 -3.534429,-7.45021 1.941172,-13.2351 C 44.11915,689.40991 49.088703,680.8005 51.785665,672 c 3.112012,-10.15485 6.388426,-23.92004 7.259659,-30.5 0.822042,-6.20845 5.607341,-24.70643 8.375372,-32.37573 0.868617,-2.40665 1.579659,-5.33165 1.580093,-6.5 0.0014,-3.68608 5.5837,-14.1063 9.573658,-17.8706 C 82.876616,580.69482 84,580.76454 84,585.0904 c 0,4.66813 2.713937,4.88944 6.694477,0.54592 C 94.469658,581.51688 94.282755,580 90,580 c -5.249006,0 -4.477655,-2.04849 3.906931,-10.37568 4.768265,-4.73563 9.615499,-10.72671 11.621149,-14.36349 3.81123,-6.91081 17.17091,-42.34466 42.13738,-111.76083 14.435,-40.13475 28.46613,-78.8092 45.35011,-125 36.36505,-99.48664 51.77395,-142.53422 52.90415,-147.79736 1.08075,-5.0329 0.95638,-7.91742 -0.94319,-21.87506 -1.22907,-9.03102 -2.00676,-18.98134 -1.77437,-22.70264 0.49574,-7.93835 4.27854,-20.43301 7.48385,-24.71933 C 251.9587,99.703694 253,98.03 253,97.686288 c 0,-0.343711 2.29281,-4.506739 5.09513,-9.251172 2.80233,-4.744434 6.02572,-10.945739 7.16309,-13.780679 C 266.3956,71.819496 267.84788,69.05 268.4855,68.5 c 2.88684,-2.490107 9.77531,-16.187246 11.9242,-23.710263 3.26428,-11.427841 4.03021,-20.344526 2.48856,-28.971039 l -1.26933,-7.1027652 2.7413,-2.3579664 C 287.85662,3.3590985 293.28201,3.2686168 298,6.1306566 c 5.77335,3.502248 17.20411,15.8765984 21.95366,23.7658944 6.06395,10.072611 7.9744,16.06801 8.01369,25.148622 0.0832,19.236549 -13.91428,55.455117 -31.28689,80.954827 -4.9562,7.27476 -14.49991,16.73894 -24.68249,24.4768 -11.04565,8.39372 -11.02847,8.37533 -15.052,16.11541 -4.19338,8.06684 -16.15985,39.91361 -54.43861,144.87929 -8.4298,23.11568 -21.48668,58.6785 -29.01529,79.0285 -45.2592,122.33665 -54.09751,147.43653 -56.57908,160.67878 -1.2377,6.60466 -1.2081,6.80995 2.66771,18.5 3.74003,11.28051 3.91703,12.39298 3.86963,24.32122 -0.0541,13.61248 -0.81966,17.32434 -10.10619,49 -6.91525,23.5874 -14.698884,42.97947 -20.612101,51.35281 -2.51836,3.56609 -10.658192,8.78983 -17.232039,11.05865 -5.794975,2.00002 -22.018818,2.92537 -28.189955,1.60787 z M 272.36971,106.75 c 1.0685,-3.98708 0.60766,-10.195822 -0.90526,-12.196253 -1.89038,-2.49953 -2.99651,-1.370716 -4.6177,4.712427 -1.21444,4.556906 -1.16213,4.872576 1.19152,7.189556 3.09285,3.04467 3.5854,3.07814 4.33144,0.29427 z"
       id="path2154"
       inkscape:connector-curvature="0" />
    <path
       style="fill:#d55957"
       d="m 44.740524,715.62235 c -5.102508,-1.89089 -6.000655,-2.77261 -8.704404,-8.54523 l -2.335515,-4.98642 5.592949,-6.04106 c 7.711422,-8.32925 11.979203,-17.59311 16.717501,-36.28782 2.19392,-8.656 3.990184,-16.756 3.991698,-18 0.0039,-3.21185 5.382822,-24.49935 7.376181,-29.19186 0.918205,-2.16152 2.300816,-6.95802 3.072469,-10.65889 0.771652,-3.70086 2.110301,-8.09661 2.974774,-9.76831 1.587457,-3.06981 7.438811,-9.12959 8.823823,-9.13813 0.4125,-0.003 0.75,1.54381 0.75,3.43635 0,4.15286 1.030663,4.9578 4.388873,3.4277 3.028506,-1.37988 8.075942,-8.30758 7.147418,-9.80996 C 94.176412,579.47642 92.585081,579 91,579 c -1.585081,0 -3.132048,-0.40464 -3.437703,-0.8992 -0.305655,-0.49456 2.997808,-4.24212 7.341029,-8.32791 9.384604,-8.82836 10.345634,-10.68423 22.408314,-43.27289 16.08446,-43.45397 18.87286,-51.07861 30.35382,-83 14.435,-40.13475 28.46613,-78.8092 45.35011,-125 7.23743,-19.8 21.95533,-60.075 32.70644,-89.5 10.75111,-29.425 20.13293,-55.91277 20.84849,-58.86171 1.09253,-4.50243 1.06081,-7.06659 -0.1979,-16 -2.3278,-16.52105 -2.83103,-29.39858 -1.36291,-34.87691 1.49082,-5.56307 7.86001,-18.6349 15.96283,-32.76138 12.81037,-22.333648 17.93976,-32.411357 20.61382,-40.5 2.50064,-7.564069 2.79549,-9.821314 2.67776,-20.5 -0.0728,-6.6 -0.27445,-13.316932 -0.4482,-14.926515 -0.26007,-2.4092899 0.26651,-3.269743 2.97945,-4.8685379 3.1773,-1.8724541 3.45791,-1.8799408 7.83323,-0.2089934 9.28759,3.5469657 26.00568,23.3854433 30.5306,36.2290633 5.04149,14.30985 -0.24792,39.201266 -14.61464,68.774983 -11.23259,23.12217 -22.5709,37.26528 -40.57077,50.60692 -11.22328,8.31878 -11.14707,8.20207 -19.19414,29.39308 -6.73248,17.72917 -29.71772,80.09233 -48.27227,130.9715 -8.4298,23.11568 -21.48668,58.6785 -29.01529,79.0285 -27.75606,75.02527 -34.89872,94.58634 -44.1171,120.8202 -11.8049,33.59463 -14.62267,43.20637 -13.82229,47.14941 0.33832,1.66671 2.16133,7.88728 4.05113,13.82349 2.96671,9.31894 3.44052,12.18719 3.46908,21 0.0368,11.3578 -0.7969,15.62514 -8.24583,42.2069 -6.06825,21.65477 -13.58535,42.57045 -18.704426,52.04341 C 91.841968,705.46488 85.817446,710.70678 77,714.1819 c -7.018715,2.76621 -26.352411,3.6295 -32.259476,1.44045 z M 272.42904,109.59609 C 273.29307,106.62394 274,102.61041 274,100.67713 c 0,-3.404416 -2.73955,-9.657957 -4.23658,-9.670807 -0.88933,-0.0076 -3.67208,6.407957 -4.46195,10.286957 -0.40423,1.98516 0.0173,3.4317 1.45691,5 1.11413,1.2137 2.33503,3.66922 2.71311,5.45672 0.37808,1.7875 0.84473,3.25 1.03701,3.25 0.19227,0 1.05651,-2.43176 1.92054,-5.40391 z"
       id="path2152"
       inkscape:connector-curvature="0" />
    <path
       style="fill:#d4423a"
       d="m 43.5,714.13593 c -2.9313,-1.33385 -4.601144,-3.02709 -6.25,-6.33757 -2.642392,-5.30524 -2.779948,-6.65777 -0.756098,-7.43439 2.406062,-0.9233 10.560367,-12.33232 13.671236,-19.128 3.248158,-7.09558 9.552568,-29.70827 10.799573,-38.73597 1.361772,-9.85855 4.857659,-23.1922 8.043587,-30.67902 C 70.653734,607.95426 72,603.01535 72,600.84563 c 0,-4.47508 2.036122,-9.07138 5.801253,-13.09563 3.313805,-3.54186 4.003259,-3.46326 4.385389,0.5 0.502832,5.21513 3.99641,4.96042 9.406445,-0.68581 5.170684,-5.39642 6.171758,-10.13472 1.971559,-9.3318 -4.926095,0.94169 -5.296319,-0.89785 -1.057514,-5.25448 2.196077,-2.25712 5.368508,-4.95854 7.049846,-6.00315 3.264862,-2.02845 6.185002,-7.75199 10.701272,-20.97476 1.4089,-4.125 7.81433,-21.675 14.23427,-39 6.41994,-17.325 16.84977,-45.9 23.17739,-63.5 14.9613,-41.61415 28.7315,-79.56766 46.80348,-129 8.04299,-22 22.55054,-61.825 32.23901,-88.5 9.68847,-26.675 18.05135,-49.06805 18.58418,-49.76233 0.72374,-0.94304 1.3114,-0.97798 2.32336,-0.13813 1.9128,1.58748 4.38006,0.36052 4.38006,-2.17819 0,-2.05869 5.21191,-17.63211 14.02969,-41.92135 5.9986,-16.5236 8.92528,-26.88804 8.94933,-31.69284 C 274.99993,96.12758 271.76365,89 269.84499,89 c -1.24539,0 -4.82917,8.127645 -5.55442,12.59686 -0.44497,2.74204 -0.0804,3.99796 1.71549,5.90959 1.9696,2.09655 2.20495,3.14789 1.72606,7.71055 -0.63871,6.0854 -5.40586,20.75007 -13.54552,41.66867 -5.51084,14.16265 -5.69465,14.47525 -5.94713,10.11433 -0.14329,-2.475 -0.93079,-10.21878 -1.75,-17.2084 -2.18388,-18.63325 -1.97288,-26.26919 0.93974,-34.00729 2.41682,-6.42089 8.54591,-18.115725 18.49202,-35.28431 8.96884,-15.481678 15.97866,-30.673596 18.17789,-39.395718 1.71341,-6.79538 2.02145,-10.321733 1.61603,-18.5 -0.2755,-5.557355 -0.81768,-11.082695 -1.20485,-12.278533 -0.57366,-1.7718328 -0.10809,-2.4823787 2.51543,-3.8390546 2.99015,-1.5462675 3.52492,-1.5481154 7.51064,-0.025953 7.87591,3.0078379 20.96809,17.6739026 27.70827,31.0392586 5.47925,10.864985 5.71448,19.038546 1.05044,36.5 -7.51921,28.15079 -23.02108,57.72148 -38.23832,72.94174 -7.37272,7.37418 -20.90248,18.27755 -23.37685,18.83895 -2.03726,0.46222 -3.7072,3.93962 -8.7256,18.16975 -2.62812,7.45226 -10.70339,29.52456 -17.94504,49.04956 -7.24165,19.525 -20.96546,56.875 -30.49735,83 -9.53189,26.125 -23.49066,64.15 -31.01947,84.5 -34.12464,92.23714 -41.53133,112.64979 -50.56419,139.35355 -2.67039,7.89445 -5.25579,14.86945 -5.74534,15.5 -1.48504,1.91274 -2.96332,9.32304 -2.45847,12.32377 0.26119,1.55247 2.03231,7.73622 3.93582,13.74166 4.63469,14.62209 5.23711,23.79757 2.43141,37.0334 -7.10394,33.51279 -22.195074,76.77196 -29.981838,85.94382 -2.74614,3.23462 -11.449703,8.33028 -17.088646,10.00486 C 66.25725,716.70671 48.816654,716.5552 43.5,714.13593 Z M 91.344212,612.2768 c 7.877205,-20.31262 17.419238,-46.64042 18.131308,-50.0268 0.39477,-1.87742 0.27951,-3.25 -0.27292,-3.25 -1.12587,0 -4.0213,6.53112 -7.5366,17 -4.291232,12.7797 -14.354653,40.5488 -15.428946,42.57478 -0.561473,1.05887 -1.500683,3.72522 -2.087133,5.92522 -1.059326,3.97394 -1.054241,3.98552 0.780497,1.7768 1.015723,-1.22276 3.90193,-7.52276 6.413794,-14 z m 20.113078,-56.2077 c 0.31644,-0.512 0.11799,-1.21356 -0.44098,-1.55902 -0.55897,-0.34546 -1.01631,0.0734 -1.01631,0.9309 0,1.75653 0.60006,2.01516 1.45729,0.62812 z M 260,129.22554 c 0,-2.24741 -0.4168,-3.25327 -1.23504,-2.98053 -1.6504,0.55014 -3.19922,6.18547 -2.32209,8.44881 0.66514,1.71631 0.77105,1.70959 2.12855,-0.13495 C 259.35714,133.49125 260,131.09125 260,129.22554 Z"
       id="path2150"
       inkscape:connector-curvature="0" />
    <path
       style="fill:#d3322f"
       d="m 43.401527,713.42571 c -4.144098,-2.04464 -9.097158,-11.62474 -6.51046,-12.59238 1.754254,-0.65623 9.00245,-10.67942 11.961038,-16.54035 3.175948,-6.29152 7.355316,-18.47776 9.146999,-26.67092 0.586691,-2.68286 1.726902,-5.82049 2.533803,-6.9725 C 61.339808,649.49754 62,646.43378 62,643.8412 c 0,-6.91085 4.272218,-23.16362 8.501234,-32.3412 2.834178,-6.15058 3.572542,-8.85626 3.193919,-11.70389 -0.667407,-5.01959 3.347155,-12.72157 6.661836,-12.7808 0.471344,-0.008 0.572994,0.72477 0.22589,1.62931 C 79.821001,590.63004 82.621024,594 85.032543,594 85.979955,594 87.315311,593.325 88,592.5 88.684689,591.675 89.864789,591 90.622445,591 91.3801,591 92,590.34736 92,589.54969 c 0,-0.79767 0.614034,-1.81017 1.36452,-2.25 1.60491,-0.94057 4.080366,-5.65516 5.014192,-9.54969 0.362666,-1.5125 1.100819,-2.75 1.640338,-2.75 1.40091,0 1.31713,0.32874 -2.116642,8.30481 -1.703675,3.95736 -4.134051,10.57019 -5.400834,14.69519 -1.266783,4.125 -3.298655,9.975 -4.515271,13 -6.485472,16.12551 -8.603338,24.11742 -5.957874,22.48243 1.290852,-0.79779 9.279948,-16.70839 10.905384,-21.7185 1.359535,-4.19052 3.847295,-6.67123 2.677893,-2.6703 C 92.049091,621.28256 90.504068,630 91.906395,630 c 0.511517,0 1.582065,0.25021 2.378996,0.55602 1.05029,0.40303 1.760658,-0.68182 2.581788,-3.94282 C 97.49023,624.13884 98,620.96363 98,619.55718 98,618.15073 98.45,617 99,617 c 0.55,0 1,-0.675 1,-1.5 0,-0.825 -0.499233,-1.5 -1.109406,-1.5 -1.078486,0 -0.960214,-1.70723 0.67545,-9.75 0.737956,-3.62863 -1.000911,-4.60594 -2.089962,-1.17464 -0.362282,1.14145 -0.904333,1.82972 -1.204558,1.5295 -0.300225,-0.30023 1.813,-6.97164 4.696056,-14.82536 2.88305,-7.85373 5.46808,-14.9545 5.7445,-15.7795 0.39967,-1.19282 0.65007,-1.10402 1.22275,0.43362 1.09698,2.94537 2.07116,0.49071 2.4978,-6.29374 0.20604,-3.27647 0.67539,-6.90486 1.04299,-8.06308 1.00966,-3.18115 2.4635,-1.49625 1.89098,2.19152 -0.34001,2.19019 0.83924,7.26013 3.65915,15.73168 5.18832,15.58672 6.26192,28.04986 3.50037,40.635 -6.32728,28.83516 -17.76561,63.95814 -25.464093,78.19101 -5.714214,10.56438 -15.228747,17.00108 -26.372393,17.84126 -6.126977,0.46195 -6.168112,0.44768 -4.063622,-1.41019 3.579249,-3.1598 5.646403,-8.18941 5.085265,-12.373 -0.546572,-4.075 -4.313407,-10.24801 -5.722158,-9.37735 -0.471872,0.29163 -1.597863,3.10942 -2.502203,6.26175 -2.970849,10.35574 -8.172144,17.26251 -12.959422,17.20875 -1.115122,-0.0125 -3.421807,-0.71071 -5.125967,-1.55152 z m 32.946476,-81.91657 c 1.808938,-1.80894 4.097526,-8.39694 3.221359,-9.27311 -1.11207,-1.11207 -5.354709,4.15472 -6.052843,7.51397 -0.734327,3.5334 0.370696,4.21993 2.831484,1.75914 z M 103.36163,591.5 c 0.31658,-0.825 0.13972,-1.5 -0.39301,-1.5 -0.53274,0 -0.96862,0.675 -0.96862,1.5 0,0.825 0.17686,1.5 0.39301,1.5 0.21616,0 0.65203,-0.675 0.96862,-1.5 z m 9.16229,-3.57536 c 0.74935,-2.36099 0.11357,-3.43666 -1.45739,-2.46576 -1.31159,0.81061 -1.4216,4.54112 -0.13392,4.54112 0.51294,0 1.22903,-0.93391 1.59131,-2.07536 z M 90,577.20515 C 90,575.52939 96.580194,569 98.268985,569 c 1.391349,0 1.469919,0.47068 0.542515,3.25 -0.596454,1.7875 -1.360545,3.54009 -1.697981,3.89465 C 96.012173,577.30187 90,578.19818 90,577.20515 Z m 11,-7.14613 C 101,568.92656 101.45,568 102,568 c 0.55,0 1,0.64844 1,1.44098 0,0.79254 -0.45,1.7191 -1,2.05902 -0.55,0.33992 -1,-0.30852 -1,-1.44098 z m 11.59484,-14.67247 c -0.39271,-1.02338 -1.34614,-1.42334 -2.60699,-1.09362 -1.34639,0.35209 -1.98785,0.0244 -1.98785,-1.01556 0,-1.70531 0.0784,-1.92525 16.50124,-46.27737 6.41515,-17.325 16.84105,-45.9 23.16867,-63.5 14.9613,-41.61415 28.7315,-79.56766 46.80348,-129 8.04299,-22 22.55054,-61.825 32.23901,-88.5 9.68847,-26.675 18.05135,-49.06805 18.58418,-49.76233 0.66889,-0.87157 1.34772,-0.94784 2.19294,-0.24637 0.67329,0.55878 2.63858,0.73308 4.36732,0.38733 2.46951,-0.4939 3.14316,-0.28798 3.14316,0.96077 0,0.87417 -3.64203,11.39292 -8.0934,23.375 -12.61863,33.96651 -27.70614,75.00532 -44.40562,120.7856 -8.42629,23.1 -21.4803,58.65 -29.00891,79 -34.15174,92.31292 -41.532,112.65289 -50.56381,139.35355 -2.67039,7.89445 -5.37678,14.98195 -6.0142,15.75 -1.55021,1.86789 -3.55788,1.76702 -4.31922,-0.217 z M 253,173.21451 c 0,-0.43203 2.294,-7.29453 5.09778,-15.25 15.5446,-44.10646 19.66047,-59.203105 17.11222,-62.766034 -0.66813,-0.934162 -1.68486,-2.795931 -2.25941,-4.137264 -0.57456,-1.341333 -1.92348,-3.05435 -2.99762,-3.806704 -2.66338,-1.865508 -2.45142,-4.809128 0.57953,-8.048152 1.63738,-1.749782 2.35386,-3.436652 2.02709,-4.772522 -0.27798,-1.136392 0.0806,-2.936392 0.79678,-4 2.59132,-3.848264 11.55513,-27.145847 13.25564,-34.452358 0.95768,-4.114812 1.75819,-11.400325 1.7789,-16.190029 0.037,-8.559763 0.0696,-8.674221 1.90968,-6.699179 1.47476,1.582976 2.17201,1.760402 3.28571,0.836108 1.10227,-0.914805 1.4137,-0.868845 1.4137,0.208632 0,0.760044 0.87486,1.928257 1.94413,2.596028 1.39409,0.870622 2.03067,2.565494 2.25,5.990546 0.21691,3.387247 0.74213,4.804829 1.80587,4.874104 4.22875,0.275391 4.20907,0.243435 3.48077,5.652314 -0.3888,2.8875 -0.35581,4.91228 0.0733,4.499512 0.42913,-0.412769 0.89251,-1.762769 1.02974,-3 0.13723,-1.237232 0.28701,-2.377845 0.33285,-2.534696 0.0458,-0.156851 0.95075,0.179045 2.01093,0.746436 1.37943,0.738252 2.1217,2.585192 2.61017,6.494717 0.37541,3.004703 1.23451,6.217929 1.90911,7.1405 1.09398,1.496105 1.54142,1.232579 4.13983,-2.438182 4.59134,-6.486156 6.24722,-5.424219 8.4925,5.446331 1.27398,6.168013 0.57549,13.840019 -1.90242,20.895382 -0.57949,1.65 -1.5778,5.025 -2.21847,7.5 -3.18253,12.294589 -4.85981,14.199525 -6.39716,7.265448 -0.85923,-3.87552 -1.19838,-4.228967 -4,-4.168686 -1.68364,0.03623 -5.19866,-0.254249 -7.81116,-0.645501 -5.09757,-0.763418 -5.23102,-0.615291 -3.83409,4.25554 0.8755,3.052683 0.76113,3.244682 -2.59206,4.351334 -2.56649,0.847016 -3.80533,0.860382 -4.61591,0.0498 C 290.15079,87.550786 289,87.730738 289,89.531385 c 0,0.842261 0.675,1.790406 1.5,2.106989 2.18178,0.837228 1.79618,2.42003 -1.54064,6.323852 C 287.33171,99.86645 286,102.00395 286,102.71223 286,103.4205 285.13064,104 284.06809,104 c -2.49987,0 -5.01247,3.70138 -8.82478,13 -3.45544,8.42819 -4.98468,15 -3.49046,15 0.95175,0 2.83061,-4.428 5.30394,-12.5 0.6741,-2.2 1.38703,-4.45 1.58429,-5 0.68399,-1.9071 6.93144,-9.85751 8.03515,-10.22541 1.91555,-0.63852 1.07045,10.72804 -0.87872,11.81886 -0.90267,0.50515 -1.95146,2.37828 -2.33066,4.16251 -0.37919,1.78422 -1.28217,3.91904 -2.00662,4.74404 -0.72446,0.825 -2.28541,5.23548 -3.46878,9.80106 -1.73122,6.67925 -1.90946,8.59281 -0.91229,9.79432 1.01628,1.22454 0.85073,1.76543 -0.91993,3.00565 C 274.97165,148.43284 274,149.76289 274,150.5567 274,151.35052 273.37314,152 272.60699,152 271.00598,152 270,154.12579 270,157.50898 c 0,2.49722 -7.20475,9.37677 -7.83618,7.48248 -0.19015,-0.57045 1.97549,-7.82161 4.81253,-16.11369 2.83704,-8.29207 4.86423,-15.36928 4.50487,-15.72713 -0.94754,-0.94356 -4.41088,3.65391 -5.06665,6.72581 -0.30803,1.44295 -2.50415,7.79855 -4.88026,14.12355 -2.37612,6.325 -4.89041,13.4125 -5.58732,15.75 -0.69691,2.3375 -1.64508,4.25 -2.10705,4.25 C 253.37797,174 253,173.64653 253,173.21451 Z M 319.81955,76.760216 C 319.6438,75.528334 318.7125,74.370338 317.75,74.186892 315.74405,73.80457 315.40855,76.008555 317.2,77.8 c 1.86216,1.862161 2.97079,1.422111 2.61955,-1.039784 z M 307,67 c 0,-1.65 -0.45,-3 -1,-3 -0.55,0 -1,1.35 -1,3 0,1.65 0.45,3 1,3 0.55,0 1,-1.35 1,-3 z m -58.80083,92 c -0.62882,-3.575 -1.37599,-12.575 -1.66039,-20 -0.51296,-13.39241 -0.50182,-13.48192 1.39706,-11.23185 1.53994,1.82475 1.73665,2.887 1.00625,5.43377 -1.1357,3.95995 -0.378,4.86544 1.64933,1.97102 2.09165,-2.98625 3.40858,-1.8712 3.40858,2.88608 0,4.06953 0.73913,4.80185 2.78333,2.75765 0.65084,-0.65084 1.43744,-0.92923 1.74802,-0.61865 0.65816,0.65815 -3.38294,12.57512 -6.81672,20.10212 L 249.34248,165.5 Z M 290,135.53518 c 0,-0.25565 0.9,-0.94648 2,-1.53518 1.5963,-0.85431 2,-0.76049 2,0.46482 0,0.86851 -0.86852,1.53518 -2,1.53518 -1.1,0 -2,-0.20917 -2,-0.46482 z m -28.95996,-9.23813 c -0.022,-3.96162 0.37882,-8.23662 0.89075,-9.5 0.51194,-1.26338 1.19551,-3.53455 1.51905,-5.04705 0.64186,-3.00055 2.97496,-3.69134 3.94342,-1.16757 0.70101,1.8268 -2.86756,16.58311 -4.9251,20.36572 -1.29381,2.37854 -1.3908,2.06265 -1.42812,-4.6511 z M 295,131.11803 c 0,-0.55 0.45,-1.27811 1,-1.61803 0.55,-0.33992 1,-0.16803 1,0.38197 0,0.55 -0.45,1.27811 -1,1.61803 -0.55,0.33992 -1,0.16803 -1,-0.38197 z m -42,-3.05901 c 0,-0.51754 0.45,-1.2191 1,-1.55902 0.55,-0.33992 1,0.0835 1,0.94098 0,0.85746 -0.45,1.55902 -1,1.55902 -0.55,0 -1,-0.42344 -1,-0.94098 z m -0.82332,-9.61184 c 0.45227,-2.17211 2.22702,-2.30502 2.63295,-0.19718 0.2108,1.0946 -0.27967,1.75 -1.30963,1.75 -0.96073,0 -1.51197,-0.64684 -1.32332,-1.55282 z M 306,109 c 0,-0.55 0.675,-1 1.5,-1 0.825,0 1.5,0.45 1.5,1 0,0.55 -0.675,1 -1.5,1 -0.825,0 -1.5,-0.45 -1.5,-1 z m 5.75069,-12.523867 c -0.54308,-2.840933 0.21518,-3.733291 2.15407,-2.534996 0.80958,0.500349 1.05188,1.620125 0.63486,2.934017 -0.90961,2.865949 -2.20009,2.681317 -2.78893,-0.399021 z M 261.7543,96.75 c -0.68835,-1.871811 0.22772,-3.75 1.82903,-3.75 1.53478,0 1.75867,0.945196 0.80968,3.418213 -0.72792,1.896928 -2.00413,2.057397 -2.63871,0.331787 z m 2.58153,-6.317217 c -0.33077,-0.86197 -0.18917,-1.979444 0.31466,-2.483277 0.55475,-0.554745 0.99712,0.0634 1.12158,1.567218 0.2315,2.797082 -0.52843,3.281775 -1.43624,0.916059 z M 312.5,88 c -0.33992,-0.55 -0.14148,-1 0.44098,-1 0.58246,0 1.05902,0.45 1.05902,1 0,0.55 -0.19844,1 -0.44098,1 -0.24254,0 -0.7191,-0.45 -1.05902,-1 z M 318,37.521439 c 0,-1.214885 -0.44659,-1.275083 -2.50423,-0.33756 -3.12035,1.421727 -3.88949,0.681838 -4.14914,-3.991316 C 311.23378,31.161653 310.83217,28.2625 310.45415,26.75 309.91696,24.600642 310.11993,24 311.38342,24 312.27254,24 313,24.440871 313,24.979714 c 0,0.538842 1.79806,3.351342 3.9957,6.25 C 321.23887,36.826412 321.9394,39 319.5,39 318.675,39 318,38.334647 318,37.521439 Z m -13.94993,-19.47801 c -1.60717,-1.393891 -2.07369,-2.419812 -1.40462,-3.088883 0.66908,-0.669071 1.59267,-0.348908 2.7808,0.963961 2.63235,2.908711 1.51564,4.632985 -1.37618,2.124922 z m -9.04998,-7.521176 C 294.57825,9.4100136 294.37451,8.343655 294.54733,8.1525667 295.04362,7.6037909 301,11.343991 301,12.204406 c 0,1.724544 -5.26804,0.247582 -5.99991,-1.682153 z M 286,10.343549 c 0,-0.5684656 0.9,-1.8480627 2,-2.843549 1.1,-0.9954863 2,-1.4964147 2,-1.1131741 0,0.3832405 -0.9,1.6628376 -2,2.843549 -1.1,1.1807111 -2,1.6816401 -2,1.1131741 z"
       id="path2148"
       inkscape:connector-curvature="0" />
    <path
       style="fill:#b8332f"
       d="m 67,714.60207 c 0,-0.21886 1.11958,-2.35636 2.487955,-4.75 2.77058,-4.84646 2.981526,-6.62125 1.444747,-12.15537 -1.206044,-4.34311 -6.093055,-10.33366 -7.646724,-9.37344 -0.571773,0.35337 -2.23423,4.47413 -3.69435,9.15725 -2.927855,9.39065 -5.034035,11.64643 -10.119809,10.8386 -1.979285,-0.31439 -3.594392,-1.46756 -4.662841,-3.32923 -1.219309,-2.12452 -2.164986,-2.70954 -3.721819,-2.30242 -2.33946,0.61178 -2.724747,-0.60055 -0.837159,-2.63416 1,-1.07737 1,-1.20556 0,-0.64099 -2.179565,1.23054 -1.361597,-0.57014 2.274949,-5.00806 1.938722,-2.36596 5.180822,-7.8123 7.204667,-12.10299 2.023844,-4.29069 4.012337,-7.94283 4.418873,-8.11587 0.406536,-0.17303 0.54411,-0.84803 0.30572,-1.5 -0.647489,-1.7708 3.047465,-12.84334 3.988851,-11.95325 0.446663,0.42232 0.60473,-0.71445 0.351259,-2.52617 -0.445282,-3.1827 0.499354,-5.15785 1.608497,-3.36322 0.945358,1.52962 -0.97994,9.67133 -2.224565,9.40725 -1.558595,-0.3307 -1.491711,0.93906 0.169106,3.21036 0.844734,1.15524 1.591192,1.44809 2.000996,0.78501 0.359501,-0.58169 1.513507,-0.83275 2.564458,-0.55792 1.497022,0.39148 2.338487,-0.46712 3.885689,-3.96483 1.086178,-2.45549 2.475861,-4.77415 3.088185,-5.15259 C 70.499008,658.1916 71,655.68508 71,653 c 0,-2.68508 0.45,-5.16008 1,-5.5 0.55,-0.33992 1,-1.87173 1,-3.40403 0,-3.43369 3.6685,-7.25038 4.960125,-5.16049 1.482878,2.39935 3.613794,0.42115 7.096254,-6.5877 l 3.402433,-6.84778 0.328029,3.70084 c 0.231171,2.60809 0.901612,3.88289 2.270594,4.31739 1.068411,0.3391 1.942565,1.06922 1.942565,1.62248 0,0.55327 0.722985,0.86044 1.606633,0.68261 3.328828,-0.6699 10.455307,-24.77902 8.155717,-27.59108 -2.20645,-2.69817 0.565,-14.08906 8.08553,-33.23224 2.75349,-7.00889 2.98697,-7.30356 3.56552,-4.5 0.76204,3.69271 2.13757,8.86669 4.78539,18 2.40249,8.28706 3.04784,24.64607 1.05121,26.64719 -0.6875,0.68905 -1.25,2.63563 -1.25,4.32574 0,3.06988 -4.41874,21.77756 -5.59239,23.67655 -0.3413,0.55225 -0.81556,3.09155 -1.0539,5.64289 -0.23834,2.55135 -0.79786,4.8793 -1.24337,5.17322 -0.93751,0.61852 -6.60788,18.12081 -6.27552,19.37014 0.12228,0.45965 -0.63595,2.25965 -1.68497,4 -1.04901,1.74035 -2.4733,4.96427 -3.16509,7.16427 -0.691788,2.2 -2.411382,6.25 -3.821319,9 -1.409937,2.75 -2.478902,5.32131 -2.375477,5.71401 0.103424,0.39271 -0.481558,0.45706 -1.29996,0.14301 C 91.591235,699.0129 91,699.36358 91,700.23961 91,701.83718 84.451392,709 82.990817,709 c -0.502098,0 -1.717937,0.85322 -2.701862,1.89605 C 78.006692,713.31495 67,716.38449 67,714.60207 Z m 44.7964,-121.94105 c 3.1604,-8.37426 2.75127,-13.4357 -0.74546,-9.2224 -0.94075,1.13354 -5.06354,17.84878 -5.0472,20.46317 0.009,1.41647 3.77125,-5.88454 5.79266,-11.24077 z M 66,646 c 0,-0.55 0.701558,-1 1.559017,-1 0.857459,0 1.280902,0.45 0.940983,1 -0.339919,0.55 -1.041476,1 -1.559017,1 C 66.423442,647 66,646.55 66,646 Z m -1,-7.85765 c 0,-0.56337 0.45,-1.30243 1,-1.64235 0.55,-0.33992 1,-1.91492 1,-3.5 0,-1.58508 0.486462,-3.18262 1.081027,-3.55008 0.596968,-0.36894 0.805732,-1.76497 0.466222,-3.11769 -0.419742,-1.67238 0.39224,-4.49517 2.559226,-8.89695 2.572515,-5.22552 3.436299,-6.22971 4.557944,-5.29882 1.749858,1.45225 3.11138,0.23934 1.518914,-1.35313 C 75.494376,609.09438 75.721502,607 77.59362,607 c 0.87649,0 1.828975,0.9 2.116631,2 C 80.721975,612.86884 83,610.42946 83,605.47723 c 0,-2.18554 1.590327,-4.22024 2.549141,-3.26142 0.432839,0.43284 -1.140764,5.70916 -2.812996,9.43204 -0.530622,1.18132 -2.995613,4.46941 -5.477759,7.30688 -2.728589,3.11919 -5.615194,7.99192 -7.300603,12.32379 C 67.494769,637.609 65,641.06289 65,638.14235 Z M 96.045187,584.25 c 0.06279,-1.04213 4.853883,-9.90576 4.909623,-9.08291 0.0753,1.11133 -3.844522,9.83291 -4.419273,9.83291 -0.294545,0 -0.515203,-0.3375 -0.49035,-0.75 z m -2.405218,-11.23012 c 2.655454,-5.32298 5.106472,-5.45957 3.266715,-0.18204 C 96.212202,574.83003 95.128922,576 93.97882,576 c -1.691571,0 -1.716437,-0.21868 -0.338851,-2.98012 z m 18.954871,-17.63333 c -0.39271,-1.02338 -1.34614,-1.42334 -2.60699,-1.09362 -1.34639,0.35209 -1.98785,0.0244 -1.98785,-1.01556 0,-1.70531 0.0784,-1.92525 16.50124,-46.27737 6.41515,-17.325 16.84105,-45.9 23.16867,-63.5 14.9613,-41.61415 28.7315,-79.56766 46.80348,-129 8.04299,-22 22.55054,-61.825 32.23901,-88.5 9.68847,-26.675 18.05135,-49.06805 18.58418,-49.76233 0.66889,-0.87157 1.34772,-0.94784 2.19294,-0.24637 0.67329,0.55878 2.63858,0.73308 4.36732,0.38733 2.46951,-0.4939 3.14316,-0.28798 3.14316,0.96077 0,0.87417 -3.64203,11.39292 -8.0934,23.375 -12.61863,33.96651 -27.70614,75.00532 -44.40562,120.7856 -8.42629,23.1 -21.4803,58.65 -29.00891,79 -34.15174,92.31292 -41.532,112.65289 -50.56381,139.35355 -2.67039,7.89445 -5.37678,14.98195 -6.0142,15.75 -1.55021,1.86789 -3.55788,1.76702 -4.31922,-0.217 z M 262,164.7104 c 0,-0.84396 2.2751,-7.98656 5.05577,-15.87244 2.78068,-7.88588 5.98499,-17.12304 7.12069,-20.52703 1.13571,-3.40399 3.13561,-7.19493 4.44423,-8.42431 L 281,117.65137 v 2.94442 c 0,4.12543 -3.2849,15.51828 -7.46152,25.87838 -1.94616,4.82745 -3.53848,9.76719 -3.53848,10.97719 0,2.02006 -1.63618,3.97524 -6.25,7.46854 -1.48202,1.12209 -1.75,1.09001 -1.75,-0.2095 z m -13.88415,-5.87768 C 246.03935,148.27315 249.11689,136.91685 252,144.5 c 0.52277,1.375 1.46042,2.5 2.08366,2.5 1.33416,0 0.57489,3.662 -1.85455,8.94463 -0.8993,1.95545 -1.89768,4.90537 -2.21862,6.55537 -0.5015,2.57822 -0.76787,2.06263 -1.89464,-3.66728 z m 14.9631,-35.41605 c 0.048,-1.16495 0.28494,-1.4019 0.60416,-0.60417 0.28887,0.72187 0.25335,1.58437 -0.0789,1.91667 -0.33229,0.33229 -0.56864,-0.25834 -0.52522,-1.3125 z m 2,-9 c 0.048,-1.16495 0.28494,-1.4019 0.60416,-0.60417 0.28887,0.72187 0.25335,1.58437 -0.0789,1.91667 -0.33229,0.33229 -0.56864,-0.25834 -0.52522,-1.3125 z M 282,111.55902 C 282,110.15156 282.45,109 283,109 c 0.55,0 1,0.87344 1,1.94098 0,1.06754 -0.45,2.2191 -1,2.55902 -0.56716,0.35052 -1,-0.48962 -1,-1.94098 z m -7,-6 c 0,-1.34254 0.45,-2.7191 1,-3.05902 1.44728,-0.89447 1.22903,-8.122938 -0.29223,-9.678571 -0.71073,-0.726786 -1.91152,-2.835107 -2.66843,-4.685157 -1.4976,-3.660477 -1.4992,-3.65286 4.52029,-21.636272 1.47279,-4.4 2.73688,-8.969529 2.80909,-10.154508 0.0722,-1.18498 0.54525,-1.89866 1.05122,-1.585956 0.52498,0.324455 0.60962,-0.240121 0.19715,-1.31501 -0.39754,-1.035961 -0.40799,-1.568762 -0.0232,-1.184004 0.69266,0.692666 4.53473,-6.743093 5.87178,-11.363983 1.7062,-5.896642 5.0081,-12.905292 5.93445,-12.596509 0.55882,0.186275 2.29336,2.417147 3.85453,4.957493 l 2.83849,4.618812 -3.67651,13.311832 C 294.39452,58.509675 292.43592,66.3 292.06416,68.5 c -0.37176,2.2 -2.11002,6.819547 -3.8628,10.26566 -1.75278,3.446114 -3.92332,9.296114 -4.82343,13 C 282.01305,97.382135 276.7924,108 275.39575,108 275.17809,108 275,106.90156 275,105.55902 Z"
       id="path2146"
       inkscape:connector-curvature="0" />
    <path
       style="fill:#d4221c"
       d="m 69.469954,709.88376 c 2.788706,-4.87839 3.001041,-6.64748 1.462748,-12.18706 -1.206044,-4.34311 -6.093055,-10.33366 -7.646724,-9.37344 -0.571773,0.35337 -2.23423,4.47413 -3.69435,9.15725 -2.927855,9.39065 -5.034035,11.64643 -10.119809,10.8386 -1.979285,-0.31439 -3.594392,-1.46756 -4.662841,-3.32923 -1.219309,-2.12452 -2.164986,-2.70954 -3.721819,-2.30242 -3.034658,0.79358 -2.589819,-0.61583 1.914932,-6.06721 4.499384,-5.44487 9.373429,-15.05348 11.609053,-22.88588 2.428804,-8.5092 2.280947,-8.2642 3.76373,-6.23638 0.830301,1.13551 1.562279,1.41272 1.973479,0.74738 0.359501,-0.58169 1.513507,-0.83275 2.564458,-0.55792 1.497022,0.39148 2.338487,-0.46712 3.885689,-3.96483 1.086178,-2.45549 2.475861,-4.77415 3.088185,-5.15259 C 70.499008,658.1916 71,655.68508 71,653 c 0,-2.68508 0.45,-5.16008 1,-5.5 0.55,-0.33992 1,-1.87173 1,-3.40403 0,-3.43369 3.6685,-7.25038 4.960125,-5.16049 1.482878,2.39935 3.613794,0.42115 7.096254,-6.5877 l 3.402433,-6.84778 0.328029,3.70084 c 0.231171,2.60809 0.901612,3.88289 2.270594,4.31739 1.068411,0.3391 1.942565,1.06922 1.942565,1.62248 0,0.55327 0.722985,0.86044 1.606633,0.68261 0.982154,-0.19765 2.755368,-3.43282 4.562051,-8.32332 3.604226,-9.75626 4.982986,-17.28428 3.577736,-19.53444 -1.27057,-2.0345 -0.12238,-12.06914 1.65986,-14.5065 1.94735,-2.66316 3.83691,-0.88266 3.06292,2.88614 -1.82469,8.885 -1.84419,8.45656 0.2347,5.1548 4.34373,-6.89881 7.8123,-19.5 5.36753,-19.5 -1.36513,0 -3.84657,2.71618 -4.57331,5.00592 -0.34809,1.09674 -1.05257,1.99408 -1.56551,1.99408 -1.25211,0 -1.18123,-0.64292 0.47944,-4.34887 0.77663,-1.73312 2.16279,-5.51363 3.08037,-8.40113 0.91757,-2.8875 2.02047,-5.25 2.45089,-5.25 1.3004,0 6.8079,18.04951 8.11713,26.6019 1.22477,8.00075 0.67451,16.82584 -1.11822,17.93381 -0.51822,0.32028 -0.94753,2.01827 -0.95403,3.77331 -0.0251,6.79206 -8.24994,35.61859 -17.35839,60.83815 -4.223875,11.6951 -7.231758,17.76286 -9.17498,18.50854 C 91.654669,698.96276 91,699.74055 91,700.38413 91,704.38668 78.729671,712.35822 70.517313,713.6909 L 66.964,714.26753 Z M 58.5,661 c 0.388212,-2.475 1.132559,-4.95 1.654106,-5.5 0.600276,-0.63302 0.699073,0.65139 0.26922,3.5 -0.373475,2.475 -1.117822,4.95 -1.654105,5.5 C 58.134591,665.15086 58.040596,663.92888 58.5,661 Z M 66,646 c 0,-0.55 0.701558,-1 1.559017,-1 0.857459,0 1.280902,0.45 0.940983,1 -0.339919,0.55 -1.041476,1 -1.559017,1 C 66.423442,647 66,646.55 66,646 Z m -1,-7.85765 c 0,-0.56337 0.45,-1.30243 1,-1.64235 0.55,-0.33992 1,-1.91492 1,-3.5 0,-1.58508 0.486462,-3.18262 1.081027,-3.55008 0.596968,-0.36894 0.805732,-1.76497 0.466222,-3.11769 -0.419742,-1.67238 0.39224,-4.49517 2.559226,-8.89695 2.572515,-5.22552 3.436299,-6.22971 4.557944,-5.29882 1.749858,1.45225 3.11138,0.23934 1.518914,-1.35313 C 75.494376,609.09438 75.721502,607 77.59362,607 c 0.87649,0 1.828975,0.9 2.116631,2 C 80.721975,612.86884 83,610.42946 83,605.47723 c 0,-2.18554 1.590327,-4.22024 2.549141,-3.26142 0.432839,0.43284 -1.140764,5.70916 -2.812996,9.43204 -0.530622,1.18132 -2.995613,4.46941 -5.477759,7.30688 -2.728589,3.11919 -5.615194,7.99192 -7.300603,12.32379 C 67.494769,637.609 65,641.06289 65,638.14235 Z m 28.75,-64.33679 c 2.368488,-2.36849 3.682715,-2.09677 2.66655,0.55131 C 96.06976,575.26059 94.834167,576 93.670789,576 H 91.555556 Z M 114,554 c -0.825,-0.53316 -2.5125,-0.97627 -3.75,-0.98469 -1.2375,-0.008 -2.25,-0.29837 -2.25,-0.64432 0,-0.74556 1.25754,-4.20324 16.50124,-45.37099 6.41515,-17.325 16.84105,-45.9 23.16867,-63.5 14.9613,-41.61415 28.7315,-79.56766 46.80348,-129 8.04299,-22 22.5472,-61.825 32.2316,-88.5 9.68439,-26.675 17.88113,-48.82106 18.21497,-49.21348 0.9249,-1.08715 8.54113,1.83036 8.8604,3.3941 0.1542,0.75525 -1.56284,6.31108 -3.81563,12.34628 -9.41399,25.22 -33.16528,89.7537 -47.45737,128.9446 -8.4298,23.11568 -21.48668,58.6785 -29.01529,79.0285 -32.43311,87.66744 -45.61104,124.07762 -52.93222,146.25 -2.68708,8.13789 -3.6091,9.15692 -6.55985,7.25 z M 248.64383,156.26221 c -0.88402,-5.3486 -0.76191,-11.52743 0.25968,-13.14033 1.01015,-1.59483 3.09649,-0.66001 3.09649,1.38745 0,0.76521 0.732,1.80094 1.62666,2.30161 1.49953,0.83918 1.49524,1.30597 -0.0548,5.97273 -2.34864,7.0711 -4.12679,8.32625 -4.92802,3.47854 z m 14.43512,-32.84554 c 0.048,-1.16495 0.28494,-1.4019 0.60416,-0.60417 0.28887,0.72187 0.25335,1.58437 -0.0789,1.91667 -0.33229,0.33229 -0.56864,-0.25834 -0.52522,-1.3125 z m 2,-9 c 0.048,-1.16495 0.28494,-1.4019 0.60416,-0.60417 0.28887,0.72187 0.25335,1.58437 -0.0789,1.91667 -0.33229,0.33229 -0.56864,-0.25834 -0.52522,-1.3125 z M 277,99.571429 c 0,-3.089077 -0.5569,-5.998054 -1.29223,-6.75 -0.71073,-0.726786 -1.91152,-2.835107 -2.66843,-4.685157 -1.19434,-2.919244 -1.16176,-4.042438 0.2466,-8.5 0.89253,-2.82495 2.54105,-8.148328 3.66337,-11.829729 1.12232,-3.681402 4.00539,-11.331402 6.40681,-17 C 285.75755,45.137944 288.00049,39.375 288.34044,38 c 0.79683,-3.222936 4.35925,-9 5.54984,-9 0.50582,0 2.1026,2.018515 3.54841,4.485588 l 2.62873,4.485588 -3.66367,13.264412 C 294.38874,58.531015 292.43592,66.3 292.06416,68.5 c -0.37176,2.2 -2.11002,6.819547 -3.8628,10.26566 -1.75278,3.446114 -3.9263,9.296114 -4.83005,13 C 281.9319,97.664966 278.63256,105 277.41844,105 277.1883,105 277,102.55714 277,99.571429 Z"
       id="path2144"
       inkscape:connector-curvature="0" />
    <path
       style="fill:#d21e1b"
       d="m 68.919179,712.59738 c 0.640238,-0.77144 3.149417,-1.56051 5.575953,-1.7535 4.890263,-0.38894 4.756204,0.29763 -0.394355,2.01964 -4.820365,1.61162 -6.661514,1.51705 -5.181598,-0.26614 z M 77,706 c 0,-0.55 0.476558,-1 1.059017,-1 0.582459,0 0.780902,0.45 0.440983,1 -0.339919,0.55 -0.816476,1 -1.059017,1 C 77.198442,707 77,706.55 77,706 Z m -24,-1.90922 c -1.083293,-1.1497 -1.468459,-3.67533 -1.386463,-9.09137 0.06244,-4.12468 -0.280444,-7.7543 -0.761977,-8.06583 C 49.6168,686.13475 51.923966,680 53.459153,680 c 0.790588,0 1.141705,-1.02929 0.938091,-2.75 -0.178977,-1.5125 -0.08358,-1.9625 0.211996,-1 0.803481,2.61643 2.680429,2.107 4.587883,-1.24523 1.066611,-1.8745 2.236104,-2.77576 3.147878,-2.42588 C 63.887976,673.17099 68,669.4298 68,667.43388 c 0,-1.53974 2.408451,-3.52187 4.700288,-3.86829 1.32634,-0.20048 1.799712,-1.16547 1.799712,-3.66881 0,-3.26969 0.142955,-3.39678 3.820782,-3.39678 2.480951,0 4.272957,-0.61367 5.110243,-1.75 2.007372,-2.72432 2.309456,-2.1713 2.184966,4 -0.110919,5.49858 -0.0011,5.76332 2.512035,6.05465 3.053192,0.35394 3.842635,3.28251 3.860968,14.32291 0.01173,7.06222 -0.749902,8.44024 -4.988994,9.02662 -2.012887,0.27844 -2.562006,0.9918 -2.818231,3.66114 -0.175026,1.82343 0.217574,3.96093 0.872445,4.75 1.486616,1.79127 0.896446,1.80928 -2.446963,0.0747 -4.015904,-2.08348 -7.451028,-0.97929 -8.483344,2.72688 -0.850983,3.05516 -0.891369,3.00318 -1.623461,-2.08924 -0.539815,-3.75494 -1.263194,-5.38497 -2.574455,-5.80115 -1.003027,-0.31835 -2.102029,-1.4558 -2.442226,-2.52766 C 67.089363,687.7062 65.965236,687 64.381586,687 62.49274,687 61.55094,687.8305 60.448973,690.46788 59.652038,692.37522 59,694.81807 59,695.89645 c 0,1.07838 -0.675,2.63569 -1.5,3.46069 -0.825,0.825 -1.5,2.40559 -1.5,3.51241 0,2.68904 -1.168711,3.16479 -3,1.22123 z m -8.296685,-9.49284 c 0.988177,-1.32113 1.940365,-2.26495 2.115973,-2.09738 0.525553,0.50151 -2.234713,4.49944 -3.10652,4.49944 -0.443376,0 0.0024,-1.08093 0.990547,-2.40206 z m 53.311998,-9.28892 C 98.006891,684.10398 98.45,682.83992 99,682.5 c 1.27319,-0.78687 1.27319,1.52988 0,3.5 -0.788086,1.21948 -0.972238,1.09025 -0.984687,-0.69098 z M 102,675.55902 c 0,-0.79254 0.40803,-1.69316 0.90674,-2.00138 0.49871,-0.30822 0.67122,0.34022 0.38337,1.44098 C 102.6795,677.33361 102,677.62877 102,675.55902 Z M 105.15789,667 c 0,-1.375 0.22698,-1.9375 0.50439,-1.25 0.27741,0.6875 0.27741,1.8125 0,2.5 -0.27741,0.6875 -0.50439,0.125 -0.50439,-1.25 z M 85.206171,647.69361 C 84.542777,645.85903 84,643.68089 84,642.85332 84,640.87046 88.175381,637 90.314451,637 c 1.704822,0 2.347346,3.00487 0.942846,4.40937 -0.408487,0.40849 -1.195987,2.58754 -1.75,4.84234 -1.277147,5.19791 -2.762834,5.69597 -4.301126,1.4419 z M 97,639.11803 c 0,-0.55 0.45,-1.27811 1,-1.61803 0.55,-0.33992 1,-0.16803 1,0.38197 0,0.55 -0.45,1.27811 -1,1.61803 -0.55,0.33992 -1,0.16803 -1,-0.38197 z m -11,-8.05901 c 0,-0.51754 0.45,-1.2191 1,-1.55902 0.55,-0.33992 1,0.0835 1,0.94098 C 88,631.29844 87.55,632 87,632 c -0.55,0 -1,-0.42344 -1,-0.94098 z m 23,-2.61804 c 0,-1.45136 0.43284,-2.2915 1,-1.94098 0.55,0.33992 1,1.49148 1,2.55902 0,1.06754 -0.45,1.94098 -1,1.94098 -0.55,0 -1,-1.15156 -1,-2.55902 z m 7.07029,0.86804 C 116.03163,628.10398 116.45,626.83992 117,626.5 c 1.18278,-0.731 1.18278,0.24752 0,3 -0.82859,1.92824 -0.86195,1.92138 -0.92971,-0.19098 z M 102.94072,603.5 c -0.55803,-3.26283 1.68881,-11.5 3.13683,-11.5 0.50735,0 0.89731,0.7875 0.86658,1.75 -0.0685,2.14403 -3.76468,11.1459 -4.00341,9.75 z M 106,588.44514 c 0,-0.30518 0.85339,-2.44268 1.89641,-4.75 1.04303,-2.30733 2.66411,-5.99514 3.6024,-8.19514 1.49398,-3.5029 1.80309,-3.75145 2.48734,-2 0.55999,1.43338 -0.24812,3.91043 -2.8524,8.74331 C 108.01019,588.03984 106,590.46825 106,588.44514 Z M 114,554 c -0.825,-0.53316 -2.5125,-0.97627 -3.75,-0.98469 -1.2375,-0.008 -2.25,-0.29837 -2.25,-0.64432 0,-0.74556 1.25754,-4.20324 16.50124,-45.37099 6.41515,-17.325 16.84105,-45.9 23.16867,-63.5 14.9613,-41.61415 28.7315,-79.56766 46.80348,-129 8.04299,-22 22.5472,-61.825 32.2316,-88.5 9.68439,-26.675 17.88113,-48.82106 18.21497,-49.21348 0.9249,-1.08715 8.54113,1.83036 8.8604,3.3941 0.1542,0.75525 -1.56284,6.31108 -3.81563,12.34628 -9.41399,25.22 -33.16528,89.7537 -47.45737,128.9446 -8.4298,23.11568 -21.48668,58.6785 -29.01529,79.0285 -32.43311,87.66744 -45.61104,124.07762 -52.93222,146.25 -2.68708,8.13789 -3.6091,9.15692 -6.55985,7.25 z M 248.69019,156.125 c -1.07442,-5.25386 -0.8189,-9.56672 0.68897,-11.62885 1.27505,-1.74374 1.42812,-1.58832 2.02776,2.05887 0.38288,2.32879 0.10062,5.78855 -0.68897,8.44498 l -1.33757,4.5 z M 277.40062,97.930482 C 278.03641,92.252203 279.60108,88 281.0547,88 c 1.44601,0 0.33946,5.229138 -2.22192,10.5 l -1.94381,4 z M 283.00558,80.75 c 0.003,-0.6875 0.48911,-2.991451 1.0801,-5.119892 1.26263,-4.547296 0.0211,-6.793543 -2.56746,-4.645226 -0.86161,0.715066 -1.82535,1.041317 -2.14167,0.725003 -1.25872,-1.258717 0.98277,-9.160111 3.23846,-11.415802 C 284.34253,58.566561 285,56.793507 285,53.862275 c 0,-2.39667 0.74086,-4.98867 1.81689,-6.356615 1.63107,-2.073577 1.92302,-2.141549 2.85463,-0.664637 0.88663,1.405606 1.27732,1.446322 2.68311,0.279624 C 294.19085,45.596717 294.68051,37.538612 293,36.5 292.45,36.160081 292,34.783524 292,33.440983 292,32.098442 292.45,31 293,31 c 0.55,0 1,1.392129 1,3.09362 0,2.252615 0.5437,3.235801 2,3.616631 2.37236,0.620385 2.5717,3.283523 0.53988,7.212625 -0.80306,1.552956 -1.19211,3.091565 -0.86454,3.419132 0.32757,0.327566 -0.0746,1.622119 -0.89362,2.876784 -0.81906,1.254664 -1.75951,3.631208 -2.08989,5.281208 -1.83054,9.142231 -3.02623,14.218558 -3.76866,16 -0.45844,1.1 -1.50573,3.6875 -2.32732,5.75 -1.43328,3.598075 -3.60191,5.108148 -3.59027,2.5 z M 289,39.5 c 0,-0.825 0.45,-1.5 1,-1.5 0.55,0 1,0.675 1,1.5 0,0.825 -0.45,1.5 -1,1.5 -0.55,0 -1,-0.675 -1,-1.5 z"
       id="path2142"
       inkscape:connector-curvature="0" />
    <path
       style="fill:#505050"
       d="m 114,554 c -0.825,-0.53316 -2.5125,-0.97627 -3.75,-0.98469 -1.2375,-0.008 -2.25,-0.29837 -2.25,-0.64432 0,-0.74556 1.25754,-4.20324 16.50124,-45.37099 6.41515,-17.325 16.84105,-45.9 23.16867,-63.5 14.9613,-41.61415 28.7315,-79.56766 46.80348,-129 8.04299,-22 22.5472,-61.825 32.2316,-88.5 9.68439,-26.675 17.88113,-48.82106 18.21497,-49.21348 0.9249,-1.08715 8.54113,1.83036 8.8604,3.3941 0.1542,0.75525 -1.56284,6.31108 -3.81563,12.34628 -9.41399,25.22 -33.16528,89.7537 -47.45737,128.9446 -8.4298,23.11568 -21.48668,58.6785 -29.01529,79.0285 -32.43311,87.66744 -45.61104,124.07762 -52.93222,146.25 -2.68708,8.13789 -3.6091,9.15692 -6.55985,7.25 z"
       id="path2140"
       inkscape:connector-curvature="0" />
    <path
       style="fill:#383838"
       d="m 111.75,552.60795 c -0.9625,-0.73064 -1.75,-1.74197 -1.75,-2.2474 0,-0.79218 14.0355,-38.92071 21.48312,-58.36055 4.63923,-12.10936 22.7033,-61.69158 26.59576,-73 0.66261,-1.925 1.81239,-5.075 2.55507,-7 0.74268,-1.925 3.09861,-8.45 5.2354,-14.5 8.4186,-23.83606 15.07949,-41.77939 15.73028,-42.37476 0.3759,-0.34388 0.42459,1.17476 0.10819,3.37476 -0.57457,3.99521 -0.57324,3.99709 1.10846,1.56947 0.92605,-1.33679 2.88347,-5.83679 4.34984,-10 1.46636,-4.16321 5.3463,-15.21947 8.62208,-24.56947 3.27578,-9.35 7.54348,-21.275 9.48377,-26.5 1.94029,-5.225 3.82106,-10.625 4.17949,-12 0.35843,-1.375 1.49119,-4.525 2.51726,-7 1.85181,-4.46682 4.82793,-12.40973 10.97355,-29.28709 1.75982,-4.83289 3.01625,-9.33289 2.79206,-10 -0.22419,-0.6671 -0.98426,0.58709 -1.68906,2.78709 -0.70479,2.2 -1.86101,5.35 -2.56936,7 -0.70836,1.65 -3.11513,7.5 -5.34838,13 -4.47455,11.01982 -5.50953,11.51014 -1.70888,0.8096 4.53094,-12.75667 12.819,-35.76806 20.82139,-57.8096 4.39302,-12.1 8.47096,-23.49281 9.06209,-25.31735 0.86437,-2.66792 1.47836,-3.20896 3.13632,-2.76365 1.13385,0.30453 2.89783,0.55984 3.91996,0.56735 2.52453,0.0185 2.31125,0.75412 -8.84768,30.51365 -12.56813,33.51774 -26.31775,70.82306 -46.07123,125 -9.02412,24.75 -18.24384,49.95 -20.48828,56 -2.24444,6.05 -8.81388,23.825 -14.59876,39.5 -5.78487,15.675 -11.13432,30.075 -11.88765,32 -3.12745,7.99157 -19.07107,52.5561 -23.61248,66 -2.694,7.975 -5.84273,17.0875 -6.99718,20.25 -2.1865,5.9897 -3.71809,6.9291 -7.10515,4.35795 z M 145,463.88197 c 0,-0.55 -0.45,-0.72189 -1,-0.38197 -0.55,0.33992 -1,1.06803 -1,1.61803 0,0.55 0.45,0.72189 1,0.38197 0.55,-0.33992 1,-1.06803 1,-1.61803 z M 150.96937,446.5 c 0,-1.65614 -0.16666,-1.7421 -0.96937,-0.5 -0.53316,0.825 -0.96937,2.4 -0.96937,3.5 0,1.65614 0.16666,1.7421 0.96937,0.5 0.53316,-0.825 0.96937,-2.4 0.96937,-3.5 z M 154,439 c 0,-0.55 -0.19844,-1 -0.44098,-1 -0.24254,0 -0.7191,0.45 -1.05902,1 -0.33992,0.55 -0.14148,1 0.44098,1 0.58246,0 1.05902,-0.45 1.05902,-1 z m 2.96456,-7.95 c 0.0588,-2.40422 -1.76214,0.159 -2.45086,3.45 l -0.62782,3 1.52163,-2.5 c 0.83689,-1.375 1.53757,-3.1525 1.55705,-3.95 z m 8,-22 c 0.0588,-2.40422 -1.76214,0.159 -2.45086,3.45 l -0.62782,3 1.52163,-2.5 c 0.83689,-1.375 1.53757,-3.1525 1.55705,-3.95 z m 5.02013,-13.35902 C 169.99311,395.24602 169.55,395.16008 169,395.5 c -0.55,0.33992 -0.99311,1.37898 -0.98469,2.30902 0.0132,1.45727 0.14929,1.48367 0.98469,0.19098 0.53316,-0.825 0.97627,-1.86406 0.98469,-2.30902 z m 8.58135,-23.46078 c 2.73338,-7.0411 2.77428,-7.2302 1.56392,-7.2302 -0.47852,0 -1.44025,2.03659 -2.13717,4.52576 -0.69693,2.48917 -1.65541,4.76573 -2.12996,5.05902 -0.47456,0.29329 -0.8656,1.2942 -0.86899,2.22424 -0.003,0.93004 -0.66156,2.94749 -1.46261,4.48322 -0.80105,1.53573 -1.71356,4.46073 -2.0278,6.5 -0.58543,3.79916 0.32711,1.78844 7.06261,-15.56204 z M 229.98469,230.69098 C 229.99311,230.24602 229.55,230.16008 229,230.5 c -0.55,0.33992 -0.99311,1.37898 -0.98469,2.30902 0.0132,1.45727 0.14929,1.48367 0.98469,0.19098 0.53316,-0.825 0.97627,-1.86406 0.98469,-2.30902 z m -47.90312,123.17808 c -0.15081,-1.1665 5.05288,-14.35829 6.06255,-15.36906 0.5494,-0.55 0.11579,1.25 -0.96358,4 -2.89718,7.38139 -5.00648,12.08444 -5.09897,11.36906 z M 190.12118,332 c -0.017,-0.825 0.58718,-2.85 1.34271,-4.5 1.7684,-3.86206 1.79435,-2.0657 0.0361,2.5 -0.74131,1.925 -1.36178,2.825 -1.37882,2 z m 2.96075,-8.1032 c -0.13197,-0.97162 4.76178,-14.07939 5.51378,-14.7685 1.18576,-1.08659 -0.53262,4.64807 -3.03224,10.11933 -1.31978,2.88881 -2.43647,4.98093 -2.48154,4.64917 z m 7.97944,-23.1468 c 0.1084,-2.20775 4.76904,-11.31623 4.8554,-9.4891 0.0802,1.69754 -3.73109,10.7391 -4.5269,10.7391 -0.21443,0 -0.36225,-0.5625 -0.3285,-1.25 z m 4.99814,-12.18342 c -0.10072,-1.57981 4.11178,-13.00571 5.18606,-14.06658 1.55498,-1.53556 -0.0188,4.14921 -2.76207,9.97692 -1.30046,2.76269 -2.39126,4.60304 -2.42399,4.08966 z"
       id="path2138"
       inkscape:connector-curvature="0" />
  </g>
</svg>
